<ttFont>
<head>
    <!-- Most of this table will be recalculated by the compiler -->
    <tableVersion value="1.0"/>
    <fontRevision value="1.0"/>
    <checkSumAdjustment value="0x4c2c57ff"/>
    <magicNumber value="0x5f0f3cf5"/>
    <flags value="00000000 00000011"/>
    <unitsPerEm value="2048"/>
    <created value="Tue May 30 14:30:49 2017"/>
    <modified value="Wed May 31 02:50:09 2017"/>
    <xMin value="-607"/>
    <yMin value="-500"/>
    <xMax value="2807"/>
    <yMax value="2125"/>
<macStyle value="00000000 00000010"/>
    <lowestRecPPEM value="3"/>
    <fontDirectionHint value="2"/>
    <indexToLocFormat value="0"/>
    <glyphDataFormat value="0"/>
  </head>
          <CharString index="0">
            rmoveto
            162 42 109 126 162 hhcurveto
            175 70 -128 -132 -9 0 -10 -1 -9 hvcurveto
            -329 -638 rmoveto
            223 182 148 192 54 82 callsubr
            -113 -47 -99 -74 -140 hhcurveto
            -154 -99 118 192 12 0 12 1 12 hvcurveto
            748 hlineto
            7 45 2 52 43 vvcurveto
            271 -161 168 -259 -302 -213 -278 -342 -264 145 -194 283 vhcurveto
            return
          </CharString>
          <CharString index="1">
            135 rmoveto
            -158 -96 120 187 264 145 198 203 162 107 -121 -171 -273 -151 -204 -212 hvcurveto
            423 -135 rmoveto
            222 1040 rlineto
            -168 hlineto
            -46 -222 rlineto
            -6 hlineto
            142 -38 -128 98 -168 hhcurveto
            -296 -223 -271 -349 -274 151 -182 238 132 132 82 109 65 hvcurveto
            4 hlineto
            -38 -173 rlineto
            return
          </CharString>
          <CharString index="2">
            135 rmoveto
            -159 -101 122 187 262 150 199 207 159 101 -122 -187 -262 -150 -199 -207 hvcurveto
            97 923 rmoveto
            -303 -230 -272 -347 -276 170 -181 266 26 callgsubr
            hvcurveto
            return
          </CharString>
          <CharString index="3">
            39 callgsubr
            -163 -35 -125 -117 -165 hhcurveto
            -140 -68 60 131 24 6 56 8 38 hvcurveto
            127 595 -52 callsubr
            -130 -620 rlineto
            -9 -43 -6 -64 -41 vvcurveto
            -161 121 -129 199 159 133 87 77 50 vhcurveto
            return
          </CharString>
          <CharString index="4">
            rmoveto
            68 56 56 68 68 -56 56 -68 -68 -56 -56 -68 -68 56 -56 68 hvcurveto
            return
          </CharString>
          <CharString index="5">
            rmoveto
            109 89 100 156 32 hvcurveto
            -118 hlineto
            -96 -20 -41 -47 -42 -75 -21 152 -141 hhcurveto
            -114 -89 -95 -160 -29 hvcurveto
            118 hlineto
            93 16 43 49 46 79 26 -152 132 hhcurveto
            return
          </CharString>
          <CharString index="6">
            -280 10 250 -167 300 hhcurveto
            342 177 220 226 183 -122 120 -240 75 hvcurveto
            -96 30 rlineto
            -175 55 -77 69 111 vvcurveto
            121 104 116 207 201 121 -105 -150 7 vhcurveto
            180 hlineto
            259 -214 159 -293 -294 -205 -167 -247 -195 117 -115 239 -75 vhcurveto
            96 -30 rlineto
            178 -56 77 -66 -130 vvcurveto
            -158 -143 -87 -185 -219 -142 116 168 -20 vhcurveto
            return
          </CharString>
          <CharString index="7">
            rmoveto
            -711 hlineto
            105 496 rlineto
            674 hlineto
            34 160 rlineto
            -674 hlineto
            99 463 rlineto
            711 -30 callsubr
            -896 -98 callsubr
            896 hlineto
            return
          </CharString>
          <CharString index="8">
            -379 rmoveto
            143 105 53 212 120 hvcurveto
            650 1154 83 callsubr
            -452 -848 rlineto
            -3 hlineto
            -125 848 -3 callsubr
            170 -1034 -34 -68 rlineto
            -132 -66 -74 -39 -68 hhcurveto
            -40 -32 7 9 -22 hvcurveto
            -26 -145 rlineto
            -8 24 46 -9 48 hhcurveto
            return
          </CharString>
          <CharString index="9">
            hlineto
            61 callgsubr
            return
          </CharString>
          <CharString index="10">
            175 16 callgsubr
            165 35 124 115 161 hhcurveto
            141 84 -84 -123 -30 -5 -34 -8 -38 hvcurveto
            -131 -595 71 callgsubr
            137 625 rlineto
            9 43 5 41 37 vvcurveto
            164 -130 148 -203 -161 -117 -84 -96 -58 vhcurveto
            -4 hlineto
            120 565 rlineto
            -175 hlineto
            return
          </CharString>
          <CharString index="11" raw="1">
            6a1dfbc7 1cfa5d6a 1df83dfb 2e461d0b
          </CharString>
          <CharString index="12">
            rmoveto
            136 130 80 104 63 hvcurveto
            4 hlineto
            -35 -166 rlineto
            175 -27 callgsubr
            84 callgsubr
            -617 rlineto
            -5 hlineto
            128 -32 -136 104 -166 hhcurveto
            -294 -227 -268 -360 -270 149 -178 238 hvcurveto
            40 153 rmoveto
            -159 -94 115 188 274 151 192 198 164 104 -121 -171 -273 -154 -204 -210 hvcurveto
            return
          </CharString>
          <CharString index="13">
            rmoveto
            -134 hlineto
            -346 -298 57 callgsubr
            222 192 rlineto
            6 hlineto
            140 -192 rlineto
            154 hlineto
            return
          </CharString>
          <CharString index="14">
            -94 callsubr
            endchar
          </CharString>
          <CharString index="15">
            288 1462 736 rmoveto
            -584 hlineto
            -34 -158 rlineto
            400 hlineto
            -11 -55 rlineto
            -231 -46 -182 -150 -233 hhcurveto
            -265 -145 190 278 312 157 378 401 222 141 -131 -206 13 hvcurveto
            182 hlineto
            5 0 5 4 vvcurveto
            285 -8 -212 204 -338 hhcurveto
            -515 -228 -473 -389 -369 219 -258 376 323 246 196 342 74 hvcurveto
            return
          </CharString>
          <CharString index="16">
            -96 callgsubr
            endchar
          </CharString>
          <CharString index="17">
            -3 callgsubr
            -133 -624 rlineto
            -788 hlineto
            133 624 50 callsubr
            140 657 rlineto
            788 hlineto
            -140 -657 rlineto
            return
          </CharString>
          <CharString index="18">
            rmoveto
            -305 -20 callgsubr
            560 hlineto
            460 317 349 506 369 -228 219 -384 hvcurveto
            -270 -160 rmoveto
            239 hlineto
            301 156 -153 -297 -392 -253 -281 -352 hvcurveto
            -330 hlineto
            return
          </CharString>
          <CharString index="19">
            -18 rmoveto
            216 188 140 198 53 82 callsubr
            -117 -46 -101 -68 -135 hhcurveto
            -158 -98 122 186 18 0 9 1 9 hvcurveto
            747 hlineto
            6 38 3 49 53 vvcurveto
            269 -155 170 -247 -145 -118 -58 -105 -88 vhcurveto
            -4 hlineto
            103 -58 -121 60 -148 hhcurveto
            -242 -167 -136 -185 -28 hvcurveto
            182 hlineto
            97 17 83 71 141 hhcurveto
            134 78 -69 -100 -26 -1 -12 -3 -13 hvcurveto
            -14 -65 -310 -15 rlineto
            -272 -12 -158 -123 -199 vvcurveto
            -159 139 -130 188 195 149 78 156 102 vhcurveto
            4 hlineto
            -144 58 120 -90 184 hhcurveto
            -230 636 rmoveto
            175 48 115 113 166 hhcurveto
            136 93 -103 -157 -14 0 -7 -1 -7 hvcurveto
            -1094 -488 rmoveto
            -121 -75 69 90 100 96 70 148 8 hvcurveto
            291 14 53 callsubr
            -135 -29 -126 -100 -158 hhcurveto
            return
          </CharString>
          <CharString index="20">
            -7 callgsubr
            -91 150 204 139 112 -8 callsubr
            -72 -114 hhcurveto
            -97 -62 53 -30 callgsubr
            return
          </CharString>
          <CharString index="21">
            rmoveto
            134 hlineto
            346 298 rlineto
            -178 hlineto
            -221 -192 rlineto
            -6 hlineto
            -141 192 rlineto
            -154 hlineto
            endchar
          </CharString>
          <CharString index="22">
            352 1343 831 rmoveto
            -380 -230 -309 -336 -253 -162 183 287 380 230 309 336 253 162 -183 -287 vhcurveto
            185 6 rmoveto
            155 -42 142 -78 107 vhcurveto
            4 14 vlineto
            97 82 60 93 19 hvcurveto
            54 262 70 callsubr
            -40 -196 rlineto
            -58 -12 -32 -23 -70 -138 -58 83 -234 hhcurveto
            -42 callgsubr
            hvcurveto
            return
          </CharString>
          <CharString index="23">
            -33 1083 601 rmoveto
            106 -25 92 -46 73 vhcurveto
            3 43 vlineto
            82 72 50 90 20 hvcurveto
            44 201 70 callsubr
            -28 -132 rlineto
            -67 -14 -31 -19 -79 -89 -98 60 -125 hhcurveto
            -303 -230 -272 -347 -276 170 -181 266 303 230 272 347 hvcurveto
            -793 -157 rmoveto
            262 150 199 207 159 101 -122 -187 -262 -150 -199 -207 -159 -101 122 187 vhcurveto
            return
          </CharString>
          <CharString index="24">
            126 604 689 839 rlineto
            -208 hlineto
            -536 -658 rlineto
            -4 hlineto
            -266 658 88 callsubr
            336 -813 -132 -630 rlineto
            return
          </CharString>
          <CharString index="25">
            rmoveto
            -71 callsubr
            -126 hlineto
            -80 callgsubr
            return
          </CharString>
          <CharString index="26">
            hmoveto
            116 callsubr
            655 rlineto
            145 30 122 104 120 hhcurveto
            116 66 -81 -97 -30 -5 -33 -8 -37 hvcurveto
            -133 -626 rlineto
            116 callsubr
            653 rlineto
            157 33 120 94 120 hhcurveto
            115 66 -81 -97 -30 -4 -33 -8 -37 hvcurveto
            -133 -626 rlineto
            116 callsubr
            656 rlineto
            9 42 4 40 37 vvcurveto
            166 -125 117 -169 -169 -112 -94 -92 -64 vhcurveto
            -3 hlineto
            93 -23 -101 93 -150 hhcurveto
            -134 -116 -87 -98 -50 hvcurveto
            -4 hlineto
            35 167 rlineto
            -166 hlineto
            return
          </CharString>
          <CharString index="27">
            rmoveto
            336 300 rlineto
            -174 hlineto
            -215 -196 rlineto
            -6 hlineto
            -131 196 rlineto
            -152 hlineto
            208 55 callsubr
          </CharString>
          <CharString index="28">
            rmoveto
            -136 hlineto
            -332 -280 58 callsubr
            211 178 rlineto
            6 hlineto
            135 -178 rlineto
            152 hlineto
            return
          </CharString>
          <CharString index="29">
            rmoveto
            -186 -40 126 -112 206 hhcurveto
            202 153 112 186 39 hvcurveto
            -156 hlineto
            -109 -23 -95 -71 -108 hhcurveto
            -106 -65 71 109 23 hvcurveto
            endchar
          </CharString>
          <CharString index="30">
            rmoveto
            310 300 rlineto
            -196 hlineto
            -274 -300 rlineto
            return
          </CharString>
          <CharString index="31">
            -468 52 hmoveto
            174 hlineto
            127 603 rlineto
            185 40 89 100 176 hhcurveto
            48 59 -12 -9 23 hvcurveto
            37 165 rlineto
            11 -23 -46 12 -51 hhcurveto
            -131 -96 -59 -94 -65 hvcurveto
            -4 hlineto
            29 138 rlineto
            -165 hlineto
            return
          </CharString>
          <CharString index="32" raw="1">
            f9e8f9d3 f9c715fc 189b1dfb 4cea1df7
            20f92505 f81806f8 75fd3c15 f845f7cd
            e71dfb80 f78dfbfb fc45fbcd fc18fc6c
            fc10f780 fb8df7fb 1ff8c5f9 ea15fc10
            fb78fbc9 fbe1fb8e fb34f74b f7b3f810
            f778f7c9 f7e1f78e f734fb4b fbb31e0b
          </CharString>
          <CharString index="33">
            rmoveto
            -574 hlineto
            -24 -116 rlineto
            574 hlineto
            endchar
          </CharString>
          <CharString index="34">
            60 49 49 60 60 -49 49 -60 -60 -49 -49 -60 -60 49 -49 60 hvcurveto
            21 -175 rmoveto
            -33 callsubr
            -234 -1092 rlineto
            -114 -24 -44 -40 -96 hhcurveto
            -18 -11 1 2 -21 hvcurveto
            -34 -151 rlineto
            -3 28 36 -1 15 hhcurveto
            188 1 110 85 42 197 rrcurveto
            endchar
          </CharString>
          <CharString index="35">
            1040 rmoveto
            -172 hlineto
            -388 -840 rlineto
            -4 hlineto
            -56 840 -3 callsubr
            -401 -840 rlineto
            -3 hlineto
            -47 840 rlineto
            -157 hlineto
            70 -1040 rlineto
            186 hlineto
            393 808 rlineto
            4 hlineto
            61 -808 92 callsubr
            return
          </CharString>
          <CharString index="36">
            -126 hlineto
            -126 -27 -98 -76 -114 121 callgsubr
            -30 callgsubr
            return
          </CharString>
          <CharString index="37">
            81 227 -10 rmoveto
            251 132 133 249 160 hvcurveto
            687 1071 rlineto
            -205 hlineto
            -574 -929 rlineto
            -16 hlineto
            -189 929 rlineto
            -189 hlineto
            251 -1135 rlineto
            -107 -80 -83 -44 -110 hhcurveto
            -43 -24 5 3 -11 hvcurveto
            79 callgsubr
            -6 10 27 -7 40 hhcurveto
            return
          </CharString>
          <CharString index="38">
            136 rmoveto
            -162 -105 121 171 252 138 225 226 159 94 -115 -194 -268 -151 -192 -199 hvcurveto
            -453 -484 rmoveto
            118 556 rlineto
            5 hlineto
            -130 40 132 -96 162 hhcurveto
            293 224 266 360 273 -147 177 -237 -135 -130 -78 -108 -63 hvcurveto
            -3 hlineto
            36 168 87 callsubr
            -295 -1388 rlineto
            return
          </CharString>
          <CharString index="39">
            rmoveto
            61 callgsubr
            185 hlineto
            109 515 rlineto
            349 hlineto
            331 254 201 337 239 -184 151 -230 hvcurveto
            -357 -160 rmoveto
            295 hlineto
            176 112 -90 -156 -232 -160 -130 -248 hvcurveto
            -304 hlineto
            return
          </CharString>
          <CharString index="40">
            -73 callgsubr
            endchar
          </CharString>
          <CharString index="41">
            802 hlineto
            31 144 rlineto
            -578 hlineto
            1 4 737 764 29 128 rlineto
            -798 hlineto
            -32 -144 rlineto
            579 hlineto
            -1 -4 -743 -767 rlineto
            return
          </CharString>
          <CharString index="42">
            rmoveto
            75 hlineto
            62 42 -33 -48 -60 -48 -42 -69 -71 -48 45 59 7 hvcurveto
            1 -150 vlineto
            -2 -14 -1 -10 -7 vvcurveto
            -120 107 -82 157 160 118 90 123 71 -45 57 -72 18 vhcurveto
            3 vlineto
            94 14 67 73 87 vvcurveto
            106 -100 75 -140 -139 -107 -76 -124 -24 vhcurveto
            147 hlineto
            48 14 44 30 52 hhcurveto
            59 40 -31 -47 -56 -45 -36 -72 hvcurveto
            -88 hlineto
            return
          </CharString>
          <CharString index="43">
            rmoveto
            6 27 27 3 31 hhcurveto
            58 35 -25 -41 -48 -45 -36 -67 -12 hvcurveto
            42 -83 rlineto
            129 27 74 71 95 vvcurveto
            92 -76 59 -122 -28 -42 -5 -7 -19 vhcurveto
            endchar
          </CharString>
          <CharString index="44" raw="1">
            15f7c3f7 7af7a4f7 efd80a1f f72d04fb
            3326f70e f74ff79a f72af75b f763f733
            f0fb0efb 4ffb9afb 2afb5bfb 631f0b
          </CharString>
          <CharString index="45">
            rmoveto
            16 30 40 8 35 hhcurveto
            44 33 -27 -35 -48 -38 -46 -79 -25 hvcurveto
            43 -85 rlineto
            126 36 83 89 105 vvcurveto
            81 -74 61 -96 -52 -45 -10 -15 -28 vhcurveto
            endchar
          </CharString>
          <CharString index="46">
            102 748 695 rmoveto
            -183 -127 83 185 176 166 144 215 hvcurveto
            333 hlineto
            -125 -588 rlineto
            -297 -160 rmoveto
            0 263 vlineto
            -114 -535 -8 callgsubr
            -570 hlineto
            -327 -223 -252 -255 -183 106 -133 166 -56 hvcurveto
            -525 -564 rlineto
            236 hlineto
            return
          </CharString>
          <CharString index="47">
            rmoveto
            6 17 4 25 28 vvcurveto
            141 -118 95 -150 -204 -139 -116 -190 -41 vhcurveto
            126 hlineto
            122 27 98 76 114 hhcurveto
            97 62 -57 -93 -19 -4 -19 -4 -10 hvcurveto
            endchar
          </CharString>
          <CharString index="48" raw="1">
            fb5df8aa f89515fb 0242cff2 f713f1e0
            f72d1ff7 590639fc 1305fb01 fc95d40a
            fc0e06fb acfb49fb 24fb73fb 10d122f7
            00631ffc 0dfc2805 f77206f7 e9f80505
            8a8b8b8b 1ff73106 0b 
          </CharString>
          <CharString index="49">
            153 hlineto
            25 115 rlineto
            87 hlineto
            27 128 rlineto
            -87 hlineto
            94 442 rlineto
            -233 hlineto
            -154 -177 -112 -134 -86 -116 -27 -143 rcurveline
            338 hlineto
            -170 126 rmoveto
            80 107 106 129 81 90 rrcurveto
            3 hlineto
            -70 -330 rlineto
            -200 hlineto
            endchar
          </CharString>
          <CharString index="50">
            rmoveto
            142 hlineto
            -159 289 64 callsubr
            return
          </CharString>
          <CharString index="51">
            rmoveto
            -337 -258 rlineto
            186 hlineto
            217 168 rlineto
            6 hlineto
            145 -168 rlineto
            162 hlineto
            -227 258 rlineto
            return
          </CharString>
          <CharString index="52">
            -6 -21 -4 -25 -28 vvcurveto
            -141 118 return
          </CharString>
          <CharString index="53">
            -27 611 -18 rmoveto
            323 192 308 312 288 -154 168 -236 -132 -128 -76 -105 -57 hvcurveto
            -3 hlineto
            119 566 rlineto
            -172 -98 callsubr
            165 hlineto
            45 215 rlineto
            5 hlineto
            -133 34 142 -100 164 hhcurveto
            -2 154 rmoveto
            -164 -110 121 171 260 145 217 216 164 92 -117 -190 -254 -134 -208 -209 hvcurveto
            return
          </CharString>
          <CharString index="54">
            436 315 388 472 return
          </CharString>
          <CharString index="55">
            rlineto
            -33 callsubr
            return
          </CharString>
          <CharString index="56">
            rmoveto
            4 11 120 419 2 8 rrcurveto
            350 hlineto
            -191 -896 19 callsubr
            -682 hlineto
            -1 -6 -156 -550 -7 -22 rrcurveto
            -215 -61 -68 -95 -92 hhcurveto
            -18 -19 3 5 -13 hvcurveto
            -34 -158 rlineto
            -6 15 29 -5 25 hhcurveto
            202 96 113 354 102 hvcurveto
            endchar
          </CharString>
          <CharString index="57">
            39 callsubr
            463 hlineto
            34 162 rlineto
            -1110 75 callgsubr
            463 hlineto
            -272 -1281 rlineto
            return
          </CharString>
          <CharString index="58">
            rmoveto
            119 -85 84 -119 -72 -64 -31 -54 -38 vhcurveto
            -3 hlineto
            128 21 68 82 82 hhcurveto
            54 38 -32 -49 7 hvcurveto
            156 hlineto
            120 -2 -103 87 -142 hhcurveto
            -101 -88 -47 -84 -61 hvcurveto
            -59 -80 -35 -108 -120 vvcurveto
            -174 101 -104 165 158 122 114 149 vhcurveto
            -389 -36 rmoveto
            71 56 54 71 62 45 -42 -60 -71 -55 -55 -69 -64 -46 43 60 vhcurveto
            endchar
          </CharString>
          <CharString index="59">
            rmoveto
            13 36 32 6 35 hhcurveto
            42 30 -23 -33 -41 -52 -54 -59 -20 hvcurveto
            54 -70 rlineto
            99 30 80 96 90 vvcurveto
            79 -60 47 -101 -39 -50 -11 -13 -26 vhcurveto
            -31 -315 -79 callsubr
            endchar
          </CharString>
          <CharString index="60">
            rmoveto
            179 -388 rlineto
            182 hlineto
            -243 506 461 534 rlineto
            -204 hlineto
            -327 -388 rlineto
            -4 hlineto
            -179 388 64 callsubr
            243 -506 -461 -534 rlineto
            204 hlineto
            327 388 rlineto
            return
          </CharString>
          <CharString index="61">
            -56 callgsubr
            -881 hlineto
            -243 -896 rlineto
            -226 -61 -74 -165 -162 hhcurveto
            -16 -26 3 3 -11 hvcurveto
            -34 -161 rlineto
            -6 16 25 -4 27 hhcurveto
            278 116 206 343 94 hvcurveto
            203 741 rlineto
            530 86 callsubr
          </CharString>
          <CharString index="62">
            703 rmoveto
            10 hlineto
            -149 -703 92 callsubr
            149 701 rlineto
            11 hlineto
            494 -701 rlineto
            206 hlineto
            -515 728 802 715 rlineto
            -232 hlineto
            -739 -663 rlineto
            -11 hlineto
            142 663 rlineto
            -180 hlineto
            -141 -661 rlineto
            -10 hlineto
            -457 661 rlineto
            -202 hlineto
            476 -674 -871 -769 rlineto
            244 hlineto
            return
          </CharString>
          <CharString index="63">
            rmoveto
            109 90 79 140 22 hvcurveto
            -116 hlineto
            -75 -14 -34 -34 -44 -84 -30 125 -130 hhcurveto
            -114 -86 -74 -144 -23 hvcurveto
            116 hlineto
            72 9 38 36 46 82 31 -125 132 hhcurveto
            -228 -45 rmoveto
            -335 -248 rlineto
            186 hlineto
            215 160 rlineto
            6 hlineto
            147 -160 rlineto
            162 hlineto
            -229 248 rlineto
            endchar
          </CharString>
          <CharString index="64">
            hmoveto
            -41 callgsubr
            return
          </CharString>
          <CharString index="65">
            1292 rmoveto
            -145 -680 rlineto
            -455 hlineto
            454 680 rlineto
            -129 -1292 rmoveto
            838 hlineto
            34 162 rlineto
            -654 hlineto
            104 486 rlineto
            617 hlineto
            34 160 rlineto
            -617 hlineto
            100 473 rlineto
            654 90 callsubr
            -958 -20 callgsubr
            194 hlineto
            304 459 rlineto
            523 hlineto
            return
          </CharString>
          <CharString index="66">
            rmoveto
            182 151 115 163 47 hvcurveto
            -137 hlineto
            -102 -33 -92 -66 -105 121 callgsubr
            89 7 0 7 1 8 hvcurveto
            -117 hlineto
            -2 -15 -1 -15 -14 vvcurveto
            -139 100 -95 165 vhcurveto
            endchar
          </CharString>
          <CharString index="67">
            rmoveto
            212 359 rlineto
            -164 hlineto
            -182 -359 rlineto
            endchar
          </CharString>
          <CharString index="68">
            rmoveto
            379 263 396 571 320 -184 204 -289 -376 -267 -403 -568 -318 184 -202 290 hvcurveto
            -288 523 rmoveto
            454 198 355 253 178 114 -143 -223 -458 -194 -350 -253 -181 -115 141 224 vhcurveto
            endchar
          </CharString>
          <CharString index="69">
            301 740 -23 rmoveto
            426 300 359 511 387 -220 232 -367 -274 -232 -147 -238 -101 hvcurveto
            197 hlineto
            142 84 141 74 184 hhcurveto
            251 154 -174 -284 -26 -3 -34 -6 -42 hvcurveto
            -1087 hlineto
            -12 -62 -4 -44 -62 vvcurveto
            -373 210 -219 359 vhcurveto
            8 168 rmoveto
            -242 -145 149 250 32 0 0 1 7 hvcurveto
            882 hlineto
            -271 -67 -189 -167 -240 hhcurveto
            return
          </CharString>
          <CharString index="70" raw="1">
            15f720f9 2cbd0af7 29f95005 9506f8ab
            fd5005f7 7006fcee f9a979fb 00fa14f9
            8e05fb89 06fd94fd 2c050b 
          </CharString>
          <CharString index="71">
            -103 333 719 rmoveto
            113 47 100 73 137 hhcurveto
            157 97 -121 -188 -12 0 -12 -1 -12 hvcurveto
            -747 hlineto
            -7 -45 -2 -52 -43 vvcurveto
            -271 160 -167 265 298 212 278 342 261 -146 195 -286 -220 -181 -147 -192 -54 vhcurveto
            377 -585 rmoveto
            -181 -67 124 135 9 0 10 1 9 hvcurveto
            557 hlineto
            -163 -43 -109 -124 -158 hhcurveto
            return
          </CharString>
          <CharString index="72">
            64 50 50 64 64 -50 50 -64 -64 -50 -50 -64 -64 50 -50 64 hvcurveto
            return
          </CharString>
          <CharString index="73" raw="1">
            1c04b415 f8a906a5 f70e05fc a906fb3a
            1cfad215 9b0a  
          </CharString>
          <CharString index="74">
            -176 hlineto
            return
          </CharString>
          <CharString index="75">
            1658 rmoveto
            -4 -17 -2 -17 -16 vvcurveto
            -114 93 -72 160 183 134 94 142 30 vhcurveto
            -139 hlineto
            -76 -16 -71 -49 -97 hhcurveto
            -85 -50 38 60 9 1 9 2 9 hvcurveto
            -245 -499 rmoveto
            139 hlineto
            76 17 71 49 97 hhcurveto
            85 49 -37 -60 -9 -1 -9 -2 -10 hvcurveto
            139 hlineto
            4 18 2 17 16 vvcurveto
            113 -92 72 -160 -183 -134 -94 -142 -31 vhcurveto
            return
          </CharString>
          <CharString index="76">
            32 callsubr
            429 109 callsubr
            -34 -144 84 callsubr
            return
          </CharString>
          <CharString index="77">
            hlineto
            35 162 rlineto
            return
          </CharString>
          <CharString index="78">
            rmoveto
            -35 callsubr
            return
          </CharString>
          <CharString index="79">
            -79 callsubr
            -119 371 -88 callgsubr
            endchar
          </CharString>
          <CharString index="80">
            -648 429 112 callsubr
            -159 -746 rlineto
            -7 -34 -3 -29 -26 vvcurveto
            -134 99 -79 156 40 22 3 7 43 vhcurveto
            31 145 rlineto
            -3 -20 -19 -1 -33 hhcurveto
            -87 -48 36 75 26 4 31 8 37 hvcurveto
            return
          </CharString>
          <CharString index="81">
            -285 rmoveto
            167 hlineto
            return
          </CharString>
          <CharString index="82">
            rmoveto
            156 -90 -152 97 -154 hhcurveto
            -273 -197 -189 -261 -206 156 -145 222 173 144 83 170 123 hvcurveto
            -156 90 152 -97 154 hhcurveto
            273 197 189 261 206 -156 145 -222 -173 -144 -83 -170 -123 hvcurveto
            -409 92 rmoveto
            116 121 -93 -147 70 hvcurveto
            -159 -97 -131 -84 -143 hhcurveto
            -126 -94 89 118 159 120 117 164 hvcurveto
            770 -479 rmoveto
            -116 -121 93 147 -70 hvcurveto
            159 97 131 84 143 hhcurveto
            126 94 -89 -118 -159 -120 -117 -164 hvcurveto
            endchar
          </CharString>
          <CharString index="83">
            rmoveto
            -146 296 rlineto
            -152 hlineto
            168 -296 rlineto
            return
          </CharString>
          <CharString index="84" raw="1">
            15edf860 a41df744 06f5f888 059306f7
            e9fc8805 f76b06fc 32f8f092 28f8eff8
            ab05fb78 06fc8ffc 60050b 
          </CharString>
          <CharString index="85" raw="1">
            15f7a6f7 7cf727f7 82f01ffb 5906fb22
            37fb2141 fb4c1bfb 8efb2ef7 42f7b0b7
            8daf8fa1 1ffad506 97c98fb7 c91af809
            fb66f76f fbfbfc2e fbd0fc0f fc7ffc17
            f770fb7c f8031efc a7f96d15 a0f72e05
            42063462 b1ddbfa0 c6bbde1f fb2d065a
            476f3940 1afb2cf1 30f73f1e f77cf72e
            15f79cd1 f75af742 f77a1bf7 86f725fb
            29fb8e6c 8b8a8a84 1f0e 
          </CharString>
          <CharString index="86" raw="1">
            15cc069d f7270539 063865b0 dec0a5cb
            b3b81ffb 2c066669 6a344b1a fb35e938
            f74a1ef7 5df72120 0a0e 
          </CharString>
          <CharString index="87">
            rmoveto
            61 callgsubr
            184 hlineto
            135 635 rlineto
            77 92 140 59 154 hhcurveto
            237 101 -140 -223 -48 hvcurveto
            -87 -408 rlineto
            184 hlineto
            87 407 rlineto
            295 62 -137 235 -364 hhcurveto
            -141 -130 -48 -64 -94 hvcurveto
            -16 hlineto
            132 618 rlineto
            endchar
          </CharString>
          <CharString index="88">
            -22 callgsubr
            -732 hlineto
            return
          </CharString>
          <CharString index="89">
            508 rmoveto
            259 8 -183 183 -262 hhcurveto
            -159 -132 -72 -121 -92 hvcurveto
            -6 1 rlineto
            333 65 180 215 215 hhcurveto
            153 109 -93 -149 23 hvcurveto
            184 hlineto
            240 -19 -183 163 -249 hhcurveto
            -390 -267 -397 -468 -16 hvcurveto
            -525 -20 302 -101 193 hhcurveto
            313 221 219 313 12 hvcurveto
            -481 286 rmoveto
            176 127 -131 -185 -8 hvcurveto
            -200 -6 -140 -142 -198 hhcurveto
            -182 -133 140 182 6 hvcurveto
            186 6 160 150 192 hhcurveto
            endchar
          </CharString>
          <CharString index="90">
            665 rmoveto
            179 hlineto
            182 104 -92 -161 -166 -135 -113 -199 -202 -127 100 166 -9 113 callgsubr
            -174 hlineto
            66 callgsubr
            -251 -8 202 -172 304 hhcurveto
            308 225 190 260 161 -88 113 -155 37 hvcurveto
            1 4 rlineto
            189 26 138 151 182 vvcurveto
            214 -181 152 -254 -268 -197 -153 -232 -30 vhcurveto
            174 hlineto
            137 22 124 94 159 hhcurveto
            161 108 -93 -139 -156 -137 -105 -201 hvcurveto
            -183 hlineto
            endchar
          </CharString>
          <CharString index="91">
            -175 127 -135 164 78 82 32 52 47 vhcurveto
            17 hlineto
            -153 -35 -158 -110 -180 hhcurveto
            -11 -12 1 1 -8 hvcurveto
            -20 -118 rlineto
            -2 22 18 -1 14 hhcurveto
            309 219 217 310 239 -140 162 -207 -186 -140 -136 -184 hvcurveto
            return
          </CharString>
          <CharString index="92">
            -184 hlineto
            return
          </CharString>
          <CharString index="93">
            352 932 -406 rmoveto
            50 callgsubr
            47 89 165 116 99 55 hvcurveto
            275 153 200 286 365 vvcurveto
            380 -238 249 -362 -436 -315 -388 -472 -380 238 -249 362 16 15 1 1 16 vhcurveto
            -4 vlineto
            -134 -81 -57 -81 107 callgsubr
            411 1237 rmoveto
            -380 -230 -309 -336 -253 -162 183 287 380 230 309 336 253 162 -183 -287 vhcurveto
            return
          </CharString>
          <CharString index="94">
            1040 rmoveto
            -175 hlineto
            -139 -655 rlineto
            -145 -30 -122 -104 -120 hhcurveto
            -116 -66 81 97 30 5 33 8 37 hvcurveto
            133 626 rlineto
            -175 hlineto
            -139 -653 rlineto
            -157 -33 -120 -94 -120 hhcurveto
            -115 -66 81 97 30 4 33 8 37 hvcurveto
            133 626 rlineto
            -175 hlineto
            -139 -656 rlineto
            -9 -42 -4 -40 -37 vvcurveto
            -166 125 -117 169 169 112 94 92 64 vhcurveto
            3 hlineto
            -93 23 101 -93 150 hhcurveto
            134 116 87 98 50 hvcurveto
            4 hlineto
            -35 -167 rlineto
            166 hlineto
            endchar
          </CharString>
          <CharString index="95">
            rmoveto
            -46 -216 rlineto
            -8 -39 -4 -34 -31 vvcurveto
            -207 170 -42 117 vhcurveto
            48 61 callsubr
            -45 hlineto
            -117 -34 64 78 28 5 30 6 29 hvcurveto
            50 235 rlineto
            7 34 5 31 27 vvcurveto
            93 -49 53 -130 29 vhcurveto
            3 16 144 14 98 68 33 156 rlinecurve
            56 265 rlineto
            160 34 63 65 140 hhcurveto
            44 hlineto
            97 callsubr
            -49 hlineto
            -226 -141 -89 -235 -50 hvcurveto
            -52 -244 rlineto
            -161 -34 -74 -52 -159 hhcurveto
            -41 -191 rlineto
            124 64 -22 -102 -24 -4 -29 -7 -34 hvcurveto
            endchar
          </CharString>
          <CharString index="96">
            hlineto
            -221 -1040 58 callsubr
            191 896 rlineto
            return
          </CharString>
          <CharString index="97">
            103 callsubr
            238 216 rlineto
            -178 hlineto
            return
          </CharString>
          <CharString index="98">
            -70 669 -391 91 callsubr
            -19 -25 -4 -29 102 callsubr
            67 77 81 155 92 hvcurveto
            185 110 140 201 262 vvcurveto
            77 callsubr
            vhcurveto
            2 -2 hlineto
            -123 -71 -59 -79 -92 19 callgsubr
            -379 835 rmoveto
            262 150 199 207 159 101 -122 -187 -262 -150 -199 -207 -159 -101 122 187 vhcurveto
            return
          </CharString>
          <CharString index="99">
            194 41 vhcurveto
            -126 hlineto
            -126 -27 -98 return
          </CharString>
          <CharString index="100">
            rmoveto
            30 hlineto
            248 110 87 235 49 hvcurveto
            11 53 rlineto
            -15 callsubr
            -9 -44 rlineto
            -137 -28 -51 -42 -117 hhcurveto
            -26 hlineto
            return
          </CharString>
          <CharString index="101">
            rmoveto
            193 hlineto
            28 132 rlineto
            -193 hlineto
            40 191 rlineto
            -140 hlineto
            -40 -191 113 callsubr
            -29 -132 rlineto
            189 hlineto
            -41 -193 rlineto
            140 hlineto
            endchar
          </CharString>
          <CharString index="102">
            176 hlineto
            return
          </CharString>
          <CharString index="103">
            rmoveto
            -58 -47 -47 -59 -59 47 -47 58 57 47 47 59 59 -47 47 -57 120 callsubr
            -57 -47 -47 -59 -59 47 -47 57 58 47 47 59 59 -47 47 -58 hvcurveto
            endchar
          </CharString>
          <CharString index="104">
            rlineto
            -172 hlineto
            return
          </CharString>
          <CharString index="105">
            rmoveto
            146 hlineto
            306 300 83 callsubr
            -576 -300 rmoveto
            146 hlineto
            306 300 83 callsubr
            endchar
          </CharString>
          <CharString index="106">
            -135 495 -9 rmoveto
            289 189 131 204 50 hvcurveto
            -179 hlineto
            -111 -39 -128 -72 -158 hhcurveto
            -152 -88 52 93 94 83 67 153 hvcurveto
            184 hlineto
            32 149 rlineto
            -157 hlineto
            -135 -67 46 87 90 89 76 165 206 46 -87 -100 15 hvcurveto
            170 hlineto
            168 -3 -105 172 -330 hhcurveto
            -245 -186 -122 -199 -90 50 -72 88 -32 hvcurveto
            -2 vlineto
            -136 -33 -101 -95 -138 vvcurveto
            -185 170 -91 230 vhcurveto
            return
          </CharString>
          <CharString index="107">
            -24 rmoveto
            306 219 222 294 272 -187 181 -258 -116 -110 -43 -70 -63 hvcurveto
            -5 hlineto
            140 450 rlineto
            657 hlineto
            35 161 rlineto
            -810 hlineto
            -244 -783 rlineto
            188 hlineto
            84 68 110 49 106 hhcurveto
            178 129 -123 -182 -206 -139 -144 -198 -182 -134 110 160 -14 113 callgsubr
            -177 hlineto
            66 callgsubr
            -253 3 208 -179 290 hhcurveto
            endchar
          </CharString>
          <CharString index="108">
            482 rmoveto
            249 -173 186 -231 -104 -79 -34 -39 -45 vhcurveto
            -4 3 18 22 28 31 13 13 rlinecurve
            547 530 rlineto
            -224 hlineto
            -424 -425 rlineto
            -220 -221 -102 -191 -190 vvcurveto
            -262 195 -188 273 299 233 226 290 vhcurveto
            -486 299 rmoveto
            179 132 -132 -181 -194 -150 -150 -194 -181 -132 131 179 193 154 154 192 hvcurveto
            endchar
          </CharString>
          <CharString index="109">
            -83 callgsubr
            endchar
          </CharString>
          <CharString index="110">
            rmoveto
            28 -82 14 -87 -87 vvcurveto
            -224 -98 -205 -132 -131 vhcurveto
            163 hlineto
            145 140 82 202 204 vvcurveto
            98 -22 106 -34 66 vhcurveto
            endchar
          </CharString>
          <CharString index="111">
            -136 993 319 rmoveto
            -172 hlineto
            -111 -46 -101 -73 -128 hhcurveto
            -159 -95 120 188 9 0 9 1 9 hvcurveto
            457 hlineto
            29 142 rlineto
            -465 hlineto
            173 48 123 120 158 hhcurveto
            144 85 -84 -103 17 hvcurveto
            171 hlineto
            177 -10 -140 163 -267 hhcurveto
            -311 -218 -278 -343 -261 144 -194 288 211 182 146 191 54 hvcurveto
            return
          </CharString>
          <CharString index="112">
            rmoveto
            67 52 52 67 67 -52 52 -67 -67 -52 -52 -67 -67 52 -52 67 hvcurveto
            370 511 -74 callsubr
          </CharString>
          <CharString index="113">
            1508 -67 callsubr
          </CharString>
          <CharString index="114">
            rmoveto
            60 49 49 60 60 -49 49 -60 -60 -49 -49 -60 -60 49 -49 60 hvcurveto
            return
          </CharString>
          <CharString index="115" raw="1">
            fbef15f7 3906e5f8 3905fb39 06fb50fa
            5a15f742 fea405f7 3406f8f6 faa4de0a
            fc5afdca 058606fb 0df9ca05 0b
          </CharString>
          <CharString index="116">
            rmoveto
            59 callsubr
            -166 hmoveto
            59 callsubr
            endchar
          </CharString>
          <CharString index="117">
            -79 callsubr
            -110 322 -15 callgsubr
            endchar
          </CharString>
          <CharString index="118">
            -100 callgsubr
            -95 1385 -56 callsubr
            return
          </CharString>
          <CharString index="119">
            -26 callsubr
            190 395 11 52 rlineto
            -360 75 callgsubr
            165 hlineto
            return
          </CharString>
          <CharString index="120">
            245 509 rlineto
            -185 hlineto
            -205 -509 rlineto
            return
          </CharString>
          <CharString index="121">
            rmoveto
            120 callgsubr
            -512 95 callsubr
            562 235 rmoveto
            120 callgsubr
            -512 95 callsubr
            endchar
          </CharString>
          <CharString index="122">
            hmoveto
            16 callsubr
          </CharString>
          <CharString index="123">
            -97 callsubr
            endchar
          </CharString>
          <CharString index="124">
            hmoveto
            -5 callsubr
            64 299 rlineto
            205 hlineto
            34 161 rlineto
            -205 hlineto
            209 983 rlineto
            -281 hlineto
            -341 -386 -312 -357 -176 -230 -27 -171 rcurveline
            718 hlineto
            -501 164 rmoveto
            232 293 283 317 193 215 rrcurveto
            4 hlineto
            -177 -829 rlineto
            -536 hlineto
            endchar
          </CharString>
          <CharString index="125">
            1144 -28 callgsubr
            return
          </CharString>
          <CharString index="126">
            rlineto
            -62 callgsubr
            return
          </CharString>
          <CharString index="127">
            hlineto
            114 535 rlineto
            120 80 168 90 159 hhcurveto
            160 94 -88 -140 -178 -123 -192 -213 -49 -52 7 9 -23 hvcurveto
            -35 -161 rlineto
            -10 22 54 -8 78 hhcurveto
            316 209 270 278 228 -147 147 -245 -175 -127 -66 -80 -87 hvcurveto
            -16 hlineto
            return
          </CharString>
          <CharString index="128">
            127 678 hmoveto
            836 1443 rlineto
            -202 hlineto
            -679 -1206 rlineto
            -4 hlineto
            -182 1206 rlineto
            -174 hlineto
            223 -20 callgsubr
            return
          </CharString>
          <CharString index="129">
            rmoveto
            152 hlineto
            313 232 rlineto
            -186 hlineto
            -193 -144 rlineto
            -6 hlineto
            -133 144 70 callsubr
            84 -282 -4 callsubr
          </CharString>
          <CharString index="130">
            rmoveto
            109 81 78 112 1 hvcurveto
            108 1 -83 64 -101 hhcurveto
            -107 -83 -78 -112 -108 83 -64 99 hvcurveto
            86 vmoveto
            -53 -39 34 55 63 41 38 59 55 37 -34 -55 1 hvcurveto
            -63 1 -41 -38 -61 hhcurveto
            141 508 rmoveto
            -149 -171 rlineto
            146 hlineto
            167 171 rlineto
            endchar
          </CharString>
          <CharString index="131">
            hmoveto
            175 16 callgsubr
            return
          </CharString>
          <CharString index="132">
            rmoveto
            171 133 133 171 171 -133 133 -171 -171 -133 -133 -171 -171 133 -133 171 hvcurveto
            endchar
          </CharString>
          <CharString index="133">
            -3 callgsubr
            -129 -605 rlineto
            -70 -74 -144 -66 -180 hhcurveto
            -239 -81 163 213 45 hvcurveto
            78 365 rlineto
            -15 callsubr
            -78 -365 rlineto
            -307 -65 158 -235 333 hhcurveto
            148 132 43 82 callgsubr
            -649 rlineto
            return
          </CharString>
          <CharString index="134">
            rmoveto
            66 53 53 66 66 -53 53 -66 -66 -53 -53 -66 -66 53 -53 66 hvcurveto
            388 448 114 callsubr
            endchar
          </CharString>
          <CharString index="135">
            -702 264 hmoveto
            -3 callgsubr
            -307 -1443 rlineto
            270 1618 -106 callgsubr
            endchar
          </CharString>
          <CharString index="136">
            241 1798 -56 callsubr
            return
          </CharString>
          <CharString index="137">
            hmoveto
            155 730 rlineto
            9 hlineto
            184 -700 rlineto
            123 hlineto
            488 700 rlineto
            9 hlineto
            -155 -730 19 callsubr
            -214 hlineto
            -545 -798 rlineto
            -6 hlineto
            -190 798 rlineto
            -210 hlineto
            -221 -1040 rlineto
            endchar
          </CharString>
          <CharString index="138" raw="1">
            af0a0e   
          </CharString>
          <CharString index="139">
            -26 callsubr
            92 return
          </CharString>
          <CharString index="140">
            rmoveto
            31 148 rlineto
            -1018 hlineto
            -31 -148 rlineto
            592 306 rmoveto
            70 55 52 73 73 -55 52 -70 -70 -55 -52 -73 -73 55 -52 70 hvcurveto
            -151 -714 rmoveto
            71 54 52 73 73 -54 52 -71 -71 -54 -52 -73 -73 54 -52 71 hvcurveto
            endchar
          </CharString>
          <CharString index="141">
            51 callsubr
            28 -169 -74 callsubr
          </CharString>
          <CharString index="142">
            388 -47 callsubr
            endchar
          </CharString>
          <CharString index="143">
            rmoveto
            30 144 rlineto
            -652 -11 callsubr
            return
          </CharString>
          <CharString index="144">
            hmoveto
            175 hlineto
            64 299 rlineto
            195 hlineto
            34 161 rlineto
            -195 hlineto
            88 414 rlineto
            -175 hlineto
            -88 -415 rlineto
            -489 hlineto
            1 4 714 980 83 callsubr
            -718 -984 -34 -160 rlineto
            684 hlineto
            endchar
          </CharString>
          <CharString index="145">
            32 callsubr
            430 rlineto
            -305 hlineto
            -31 -145 rlineto
            138 hlineto
            return
          </CharString>
          <CharString index="146">
            272 117 callgsubr
            return
          </CharString>
          <CharString index="147">
            -235 -509 rlineto
            161 hlineto
            255 509 rlineto
            return
          </CharString>
          <CharString index="148">
            rmoveto
            81 callgsubr
            -187 87 callgsubr
            -760 hlineto
            272 1279 rlineto
            -15 callsubr
            -309 -20 callgsubr
            1146 hlineto
            -61 -285 rlineto
            endchar
          </CharString>
          <CharString index="149">
            -26 callsubr
            86 callgsubr
            -263 75 callgsubr
            96 hlineto
            return
          </CharString>
          <CharString index="150">
            rmoveto
            152 hlineto
            337 258 rlineto
            -187 hlineto
            -217 -168 rlineto
            -6 hlineto
            -145 168 rlineto
            -161 hlineto
            363 36 rmoveto
            61 48 49 61 61 -48 48 -61 -61 -48 -48 -61 -61 48 -49 61 hvcurveto
            endchar
          </CharString>
          <CharString index="151">
            -299 rmoveto
            -2 -10 -18 -1 -17 hhcurveto
            -79 -43 34 63 81 53 77 131 68 hvcurveto
            -119 32 rlineto
            -137 -69 -93 -113 -110 vvcurveto
            -120 83 -73 143 34 32 4 6 14 vhcurveto
            endchar
          </CharString>
          <CharString index="152">
            58 callsubr
            100 468 rlineto
            202 -19 hlineto
            -287 return
          </CharString>
          <CharString index="153">
            rmoveto
            -54 165 -37 218 265 vvcurveto
            414 164 390 299 299 vhcurveto
            -192 hlineto
            -263 -258 -183 -398 -434 vvcurveto
            -237 46 -281 66 -143 vhcurveto
            endchar
          </CharString>
          <CharString index="154">
            rmoveto
            54 -165 37 -218 -265 vvcurveto
            -414 -164 -390 -299 -299 vhcurveto
            192 hlineto
            263 258 183 398 434 vvcurveto
            237 -46 281 -66 143 vhcurveto
            endchar
          </CharString>
          <CharString index="155">
            -4 hlineto
            -142 -83 -77 -97 -94 vvcurveto
            -90 75 -59 113 47 47 9 12 17 vhcurveto
            50 callgsubr
            46 62 75 80 146 89 hvcurveto
            18 11 return
          </CharString>
          <CharString index="156">
            rmoveto
            35 148 rlineto
            -1007 hlineto
            -35 -148 rlineto
            108 469 rmoveto
            -36 -158 1077 301 35 148 -937 306 -37 -153 709 -209 -6 -23 rlineto
            endchar
          </CharString>
          <CharString index="157">
            rlineto
            -184 -98 callsubr
            184 hlineto
            return
          </CharString>
          <CharString index="158">
            1543 0 callgsubr
            return
          </CharString>
          <CharString index="159">
            rmoveto
            435 hlineto
            34 162 rlineto
            -434 hlineto
            93 439 rlineto
            -152 hlineto
            -93 -439 rlineto
            -432 75 callgsubr
            431 hlineto
            -88 -417 119 callgsubr
          </CharString>
          <CharString index="160">
            -26 -116 rlineto
            return
          </CharString>
          <CharString index="161">
            rmoveto
            -83 callsubr
            endchar
          </CharString>
          <CharString index="162">
            -300 rlineto
            endchar
          </CharString>
          <CharString index="163">
            hmoveto
            -56 callgsubr
            -1131 95 callgsubr
            272 1279 rlineto
            768 87 callgsubr
            endchar
          </CharString>
          <CharString index="164">
            475 93 callgsubr
            68 callgsubr
            return
          </CharString>
          <CharString index="165">
            rlineto
            -5 callsubr
            return
          </CharString>
          <CharString index="166">
            321 289 rlineto
            -194 hlineto
            -281 -289 rlineto
            return
          </CharString>
          <CharString index="167">
            -29 callgsubr
            -176 hlineto
            return
          </CharString>
          <CharString index="168">
            hlineto
            29 136 rlineto
            return
          </CharString>
          <CharString index="169" raw="1">
            f7cc1c05 d03c0a0b  
          </CharString>
          <CharString index="170">
            -51 callgsubr
            endchar
          </CharString>
          <CharString index="171">
            rlineto
            -182 hlineto
            return
          </CharString>
          <CharString index="172">
            rmoveto
            650 hlineto
            33 152 rlineto
            -650 hlineto
            endchar
          </CharString>
          <CharString index="173">
            rmoveto
            33 154 rlineto
            -967 hlineto
            -33 -154 rlineto
            return
          </CharString>
          <CharString index="174">
            25 rmoveto
            -162 hlineto
            -66 -310 rlineto
            162 hlineto
            return
          </CharString>
          <CharString index="175">
            985 rmoveto
            264 -406 rlineto
            -13 vlineto
            -423 -421 rlineto
            209 hlineto
            408 406 3 21 -271 413 rlineto
            return
          </CharString>
          <CharString index="176">
            hlineto
            88 callgsubr
            return
          </CharString>
          <CharString index="177">
            rlineto
            -162 hlineto
            return
          </CharString>
          <CharString index="178">
            rmoveto
            -604 384 2 9 770 394 41 190 -991 -506 -30 -142 775 -511 rlineto
            endchar
          </CharString>
          <CharString index="179">
            hmoveto
            203 hlineto
            913 1276 36 167 rlineto
            -925 hlineto
            -35 -161 rlineto
            731 hlineto
            -1 -6 rlineto
            endchar
          </CharString>
          <CharString index="180">
            rmoveto
            -62 callgsubr
            return
          </CharString>
          <CharString index="181">
            hlineto
            -35 -162 rlineto
            return
          </CharString>
          <CharString index="182">
            -93 269 hmoveto
            53 callgsubr
            return
          </CharString>
          <CharString index="183">
            rmoveto
            106 callsubr
          </CharString>
          <CharString index="184">
            -48 callgsubr
            -303 -230 -272 -347 -276 170 -181 266 return
          </CharString>
          <CharString index="185">
            -36 callgsubr
            endchar
          </CharString>
          <CharString index="186" raw="1">
            56fb9090 79fb0bfc c205f70c 06f70bf8
            c2969dc0 f790050b  
          </CharString>
          <CharString index="187">
            hlineto
            60 284 rlineto
            -1847 hlineto
            31 148 rmoveto
            return
          </CharString>
          <CharString index="188">
            108 509 rlineto
            -160 hlineto
            -108 -509 rlineto
            return
          </CharString>
          <CharString index="189">
            hvcurveto
            -171 hlineto
            return
          </CharString>
          <CharString index="190">
            rlineto
            -192 hlineto
            return
          </CharString>
          <CharString index="191">
            rlineto
            177 hlineto
            return
          </CharString>
          <CharString index="192">
            vvcurveto
            -214 -181 -176 -203 -26 vhcurveto
            -32 -152 rlineto
            1062 hlineto
            endchar
          </CharString>
          <CharString index="193">
            hlineto
            -272 -1281 rlineto
            endchar
          </CharString>
          <CharString index="194">
            rlineto
            -171 hlineto
            return
          </CharString>
          <CharString index="195">
            rlineto
            -190 hlineto
            return
          </CharString>
          <CharString index="196">
            hmoveto
            -3 callgsubr
            -307 -1443 rlineto
            endchar
          </CharString>
          <CharString index="197">
            -30 callsubr
            -1110 hlineto
            return
          </CharString>
          <CharString index="198">
            rmoveto
            74 callgsubr
            return
          </CharString>
          <CharString index="199">
            rlineto
            180 hlineto
            return
          </CharString>
          <CharString index="200">
            596 1592 28 callgsubr
            return
          </CharString>
          <CharString index="201">
            hlineto
            273 116 callgsubr
            return
          </CharString>
          <CharString index="202">
            hlineto
            -28 -133 rlineto
            return
          </CharString>
          <CharString index="203" raw="1">
            15f8061c 06ce05fb 1a06fc06 1cf93205
            0b   
          </CharString>
          <CharString index="204">
            30 141 rlineto
            return
          </CharString>
          <CharString index="205" raw="1">
            2ed5f90b 15f9d606 a9f72405 fdd5060b
          </CharString>
          <CharString index="206">
            rmoveto
            2048 hlineto
            33 152 rlineto
            -2048 hlineto
            endchar
          </CharString>
          <CharString index="207">
            hmoveto
            -62 callgsubr
            return
          </CharString>
          <CharString index="208">
            896 -52 callsubr
            return
          </CharString>
          <CharString index="209">
            104 callsubr
            47 return
          </CharString>
          <CharString index="210">
            rmoveto
            154 hlineto
            return
          </CharString>
          <CharString index="211">
            hhcurveto
            -60 -35 27 return
          </CharString>
          <CharString index="212">
            rmoveto
            13 callsubr
            return
          </CharString>
          <CharString index="213">
            176 -27 callgsubr
            -176 hlineto
            endchar
          </CharString>
          <CharString index="214" raw="1">
            15fb2e06 febb1cf9 0105f72e 060b
          </CharString>
          <CharString index="215">
            hlineto
            91 428 rlineto
            return
          </CharString>
          <CharString index="216">
            rlineto
            -341 hlineto
            return
          </CharString>
          <CharString index="217">
            rmoveto
            -207 545 -439 -545 rlineto
            endchar
          </CharString>
          <CharString index="218">
            rmoveto
            137 646 -572 -323 rlineto
            endchar
          </CharString>
          <CharString index="219">
            1040 rmoveto
            -174 hlineto
            return
          </CharString>
          <CharString index="220">
            rlineto
            -188 hlineto
            return
          </CharString>
          <CharString index="221">
            rmoveto
            -634 hlineto
            -26 102 callgsubr
            return
          </CharString>
          <CharString index="222">
            rmoveto
            -646 hlineto
            207 -545 rlineto
            endchar
          </CharString>
          <CharString index="223">
            175 hlineto
            139 return
          </CharString>
          <CharString index="224">
            -27 callgsubr
            -179 hlineto
            return
          </CharString>
          <CharString index="225" raw="1">
            b6f75d05 fb100660 fb5e0b 
          </CharString>
          <CharString index="226">
            rlineto
            153 hlineto
            return
          </CharString>
          <CharString index="227">
            hvcurveto
            354 hmoveto
            return
          </CharString>
        <CharString name=".notdef">
          882 -65 -494 rmoveto
          1847 hlineto
          61 284 rlineto
          -1848 hlineto
          32 148 rmoveto
          1847 hlineto
          60 284 rlineto
          -1847 hlineto
          32 148 rmoveto
          1847 80 callsubr
          1848 80 callsubr
          1848 80 callsubr
          1847 hlineto
          61 284 rlineto
          -1848 hlineto
          endchar
        </CharString>
        <CharString name=".null">
          endchar
        </CharString>
        <CharString name="A">
          -100 callgsubr
          endchar
        </CharString>
        <CharString name="AE">
          703 1148 -42 callsubr
          endchar
        </CharString>
        <CharString name="AEacute">
          703 1148 -42 callsubr
          463 1101 -82 callgsubr
        </CharString>
        <CharString name="AEmacron">
          703 1148 -42 callsubr
          739 1291 -76 callgsubr
        </CharString>
        <CharString name="Aacute">
          -100 callgsubr
          18 1147 -82 callgsubr
        </CharString>
        <CharString name="Abreve">
          -100 callgsubr
          -324 1435 -87 callsubr
          endchar
        </CharString>
        <CharString name="Abreveacute">
          -100 callgsubr
          -108 1417 -10 callsubr
          -170 -503 -41 callsubr
        </CharString>
        <CharString name="Abrevedotbelow">
          -100 callgsubr
          -324 1435 -87 callsubr
          -256 -2281 -102 callgsubr
        </CharString>
        <CharString name="Abrevegrave">
          -100 callgsubr
          69 1417 31 callgsubr
        </CharString>
        <CharString name="Abrevehookabove">
          -100 callgsubr
          -175 1602 rmoveto
          6 28 27 3 32 hhcurveto
          63 35 -25 -42 -49 -49 -37 -69 -12 hvcurveto
          72 -77 rlineto
          109 30 65 72 87 vvcurveto
          93 -78 61 -120 -28 -43 -5 -7 -19 vhcurveto
          86 -570 -41 callsubr
        </CharString>
        <CharString name="Abrevetilde">
          -100 callgsubr
          139 1420 rmoveto
          109 90 79 140 22 hvcurveto
          -116 hlineto
          -75 -14 -34 -34 -44 -84 -30 125 -130 hhcurveto
          -114 -86 -74 -144 -23 hvcurveto
          116 hlineto
          72 9 38 36 46 82 31 -125 132 hhcurveto
          -203 -290 -41 callsubr
        </CharString>
        <CharString name="Acaron">
          -100 callgsubr
          -126 1147 -86 callsubr
        </CharString>
        <CharString name="Acircumflex">
          -100 callgsubr
          54 1445 -93 callsubr
        </CharString>
        <CharString name="Acircumflexacute">
          11 callsubr
          101 32 -10 callsubr
          endchar
        </CharString>
        <CharString name="Acircumflexdotbelow">
          -100 callgsubr
          54 1445 -94 callsubr
          -728 -1993 -102 callgsubr
        </CharString>
        <CharString name="Acircumflexgrave">
          11 callsubr
          287 32 -10 callgsubr
          endchar
        </CharString>
        <CharString name="Acircumflexhookabove">
          11 callsubr
          36 155 rmoveto
          6 25 25 3 27 hhcurveto
          54 35 -25 -37 -44 -45 -32 -59 -12 hvcurveto
          62 -70 rlineto
          103 28 60 63 81 vvcurveto
          84 -70 55 -112 -28 -38 -5 -7 -16 vhcurveto
          endchar
        </CharString>
        <CharString name="Acircumflextilde">
          -100 callgsubr
          131 1420 -44 callsubr
        </CharString>
        <CharString name="Acyrillic">
          135 855 -101 callgsubr
          endchar
        </CharString>
        <CharString name="Adblgrave">
          -100 callgsubr
          -280 1147 -57 callsubr
          519 -289 -57 callsubr
          endchar
        </CharString>
        <CharString name="Adieresis">
          -100 callgsubr
          -219 52 callgsubr
          endchar
        </CharString>
        <CharString name="Adieresismacron">
          -100 callgsubr
          -219 1353 -39 callgsubr
        </CharString>
        <CharString name="Adotaccent">
          -100 callgsubr
          -31 1198 -102 callgsubr
        </CharString>
        <CharString name="Adotbelow">
          -100 callgsubr
          -454 -846 -102 callgsubr
        </CharString>
        <CharString name="Adotmacron">
          -100 callgsubr
          -36 1164 27 callsubr
        </CharString>
        <CharString name="Agrave">
          -100 callgsubr
          -150 1147 -57 callsubr
          endchar
        </CharString>
        <CharString name="Ahookabove">
          -100 callgsubr
          -206 1350 -64 callsubr
        </CharString>
        <CharString name="Ainvertedbreve">
          -100 callgsubr
          253 1129 -60 callsubr
        </CharString>
        <CharString name="Alphagreek">
          -100 callgsubr
          endchar
        </CharString>
        <CharString name="Alphatonosgreek">
          -100 callgsubr
          -684 731 -28 callgsubr
          endchar
        </CharString>
        <CharString name="Amacron">
          -100 callgsubr
          294 1337 -76 callgsubr
        </CharString>
        <CharString name="Aogonek">
          125 1128 -288 rmoveto
          -9 -20 -25 -4 -28 104 callsubr
          46 62 73 82 148 87 hvcurveto
          22 13 -224 1427 rlineto
          -181 hlineto
          -833 -20 callgsubr
          198 hlineto
          231 413 rlineto
          579 hlineto
          61 -408 rlineto
          -152 -93 -78 -96 -94 vvcurveto
          -90 75 -59 113 47 47 9 12 17 vhcurveto
          -256 1630 rmoveto
          4 hlineto
          99 -658 rlineto
          -471 hlineto
          endchar
        </CharString>
        <CharString name="Aring">
          -100 callgsubr
          -34 1142 -89 callgsubr
        </CharString>
        <CharString name="Aringacute">
          -100 callgsubr
          -43 1094 23 callsubr
        </CharString>
        <CharString name="Aringbelow">
          -100 callgsubr
          -460 -913 -89 callgsubr
        </CharString>
        <CharString name="Atilde">
          -100 callgsubr
          80 1133 -102 callsubr
          endchar
        </CharString>
        <CharString name="B">
          134 680 -84 callgsubr
          endchar
        </CharString>
        <CharString name="Bdotaccent">
          134 680 -84 callgsubr
          192 1452 -102 callgsubr
        </CharString>
        <CharString name="Bdotbelow">
          134 680 -84 callgsubr
          -173 -592 -102 callgsubr
        </CharString>
        <CharString name="Becyrillic">
          75 655 hmoveto
          327 223 242 245 233 -191 148 -270 hvcurveto
          -290 hlineto
          88 413 rlineto
          670 -30 callsubr
          -855 -98 callsubr
          218 160 rmoveto
          117 548 rlineto
          287 hlineto
          183 127 -77 -171 -165 -166 -135 -215 hvcurveto
          endchar
        </CharString>
        <CharString name="Betagreek">
          134 680 -84 callgsubr
          endchar
        </CharString>
        <CharString name="Blinebelow">
          134 680 -84 callgsubr
          161 -410 -76 callgsubr
        </CharString>
        <CharString name="C">
          236 1292 978 -93 callgsubr
          endchar
        </CharString>
        <CharString name="Cacute">
          236 1292 978 -93 callgsubr
          -268 584 -82 callgsubr
        </CharString>
        <CharString name="Ccaron">
          236 1292 978 -93 callgsubr
          -412 584 -86 callsubr
        </CharString>
        <CharString name="Ccedilla">
          236 1474 978 rmoveto
          8 0 4 -1 15 vhcurveto
          284 -19 -224 177 -312 hhcurveto
          -430 -310 -372 -490 -348 190 -233 307 -40 hvcurveto
          -77 -142 -16 -72 rlineto
          59 hlineto
          108 47 -20 -45 -44 -46 -25 -79 -48 -48 9 16 -43 hvcurveto
          -24 -114 rlineto
          -17 45 73 -12 59 hhcurveto
          148 98 79 119 95 -70 54 -119 -4 hvcurveto
          67 118 270 15 219 169 75 258 rlinecurve
          -182 hlineto
          -174 -68 -157 -104 -193 hhcurveto
          -254 -156 178 290 400 225 291 328 202 152 -111 -188 20 hvcurveto
          1 -8 1 -10 -6 vvcurveto
          endchar
        </CharString>
        <CharString name="Ccedillaacute">
          236 1345 1851 rmoveto
          -202 hlineto
          -281 -289 rlineto
          162 hlineto
          450 -584 rmoveto
          8 0 4 -1 15 vhcurveto
          284 -19 -224 177 -312 hhcurveto
          -430 -310 -372 -490 -348 190 -233 307 -40 hvcurveto
          -77 -142 -16 -72 rlineto
          59 hlineto
          108 47 -20 -45 -44 -46 -25 -79 -48 -48 9 16 -43 hvcurveto
          -24 -114 rlineto
          -17 45 73 -12 59 hhcurveto
          148 98 79 119 95 -70 54 -119 -4 hvcurveto
          67 118 270 15 219 169 75 258 rlinecurve
          -182 hlineto
          -174 -68 -157 -104 -193 hhcurveto
          -254 -156 178 290 400 225 291 328 202 152 -111 -188 20 hvcurveto
          1 -8 1 -10 -6 vvcurveto
          endchar
        </CharString>
        <CharString name="Ccircumflex">
          236 1292 978 -93 callgsubr
          -232 882 -93 callsubr
        </CharString>
        <CharString name="Cdotaccent">
          236 1292 978 -93 callgsubr
          -317 635 -102 callgsubr
        </CharString>
        <CharString name="Checyrillic">
          20 callgsubr
          endchar
        </CharString>
        <CharString name="Chigreek">
          138 -20 40 callgsubr
        </CharString>
        <CharString name="D">
          247 387 1443 36 callgsubr
        </CharString>
        <CharString name="Dcaron">
          247 387 1443 -89 callsubr
          462 1400 -86 callsubr
        </CharString>
        <CharString name="Dcircumflexbelow">
          247 387 1443 -89 callsubr
          293 -325 -93 callsubr
        </CharString>
        <CharString name="Dcommaaccent">
          247 387 1443 -89 callsubr
          124 -636 -40 callsubr
        </CharString>
        <CharString name="Dcroat">
          247 298 160 rmoveto
          106 496 rlineto
          326 hlineto
          34 162 rlineto
          -326 hlineto
          99 465 rlineto
          239 hlineto
          301 156 -153 -297 -392 -253 -281 -352 hvcurveto
          -241 1283 rmoveto
          -132 -625 rlineto
          -141 hlineto
          -35 -162 rlineto
          142 hlineto
          -139 -656 rlineto
          560 hlineto
          460 317 349 506 369 -228 219 -384 hvcurveto
          endchar
        </CharString>
        <CharString name="Ddotaccent">
          247 387 1443 -89 callsubr
          557 1451 -102 callgsubr
        </CharString>
        <CharString name="Ddotbelow">
          247 387 1443 -89 callsubr
          204 -593 -102 callgsubr
        </CharString>
        <CharString name="Decyrillic">
          261 484 531 rmoveto
          206 750 rlineto
          555 hlineto
          -238 -1119 rlineto
          -703 hlineto
          3 12 89 85 43 109 45 163 rlinecurve
          -380 -531 rmoveto
          1066 hlineto
          -61 -285 rlineto
          167 hlineto
          81 callgsubr
          -903 hlineto
          -248 -908 -51 -189 -67 -128 -117 -56 rlinecurve
          -107 hlineto
          -95 -447 rlineto
          167 hlineto
          endchar
        </CharString>
        <CharString name="Deltagreek">
          147 1191 hmoveto
          27 126 -225 1317 rlineto
          -181 hlineto
          -783 -1317 -27 -126 rlineto
          859 1224 rmoveto
          4 hlineto
          178 -1060 -1 -2 rlineto
          -795 hlineto
          1 4 rlineto
          endchar
        </CharString>
        <CharString name="Djecyrillic">
          503 459 hmoveto
          184 hlineto
          114 535 rlineto
          121 81 165 89 144 hhcurveto
          170 98 -101 -175 -187 -137 -135 -188 -51 -61 7 9 -22 hvcurveto
          -35 -161 rlineto
          -10 24 77 -8 68 hhcurveto
          303 206 204 300 262 -161 157 -271 -134 -137 -57 -89 -79 hvcurveto
          -12 hlineto
          110 520 rlineto
          463 90 callsubr
          -35 -162 rlineto
          463 hlineto
          endchar
        </CharString>
        <CharString name="Dlinebelow">
          247 387 1443 -89 callsubr
          538 -411 -76 callgsubr
        </CharString>
        <CharString name="Dzecyrillic">
          71 105 424 rmoveto
          -101 callsubr
          endchar
        </CharString>
        <CharString name="Dzhecyrillic">
          255 118 callgsubr
          -183 87 callgsubr
          -768 hlineto
          272 1279 rlineto
          -180 -98 callsubr
          513 hlineto
          -61 -285 rlineto
          162 hlineto
          61 285 rlineto
          endchar
        </CharString>
        <CharString name="E">
          -32 1010 162 -100 callsubr
          endchar
        </CharString>
        <CharString name="Eacute">
          -32 1010 162 -100 callsubr
          -34 1560 -82 callgsubr
        </CharString>
        <CharString name="Ebreve">
          -32 1010 162 -100 callsubr
          -376 1848 -87 callsubr
          endchar
        </CharString>
        <CharString name="Ecaron">
          -32 1010 162 -100 callsubr
          -178 1560 -86 callsubr
        </CharString>
        <CharString name="Ecedilla">
          -32 1248 1281 rmoveto
          35 162 rlineto
          -896 hlineto
          -307 -1443 rlineto
          405 hlineto
          -87 -159 -16 -72 rlineto
          59 hlineto
          108 47 -20 -45 -44 -46 -25 -79 -48 -48 9 16 -43 hvcurveto
          -24 -114 rlineto
          -17 45 73 -12 59 hhcurveto
          148 98 79 119 95 -70 54 -119 -4 hvcurveto
          80 140 rlineto
          354 hlineto
          34 162 rlineto
          -711 hlineto
          105 496 rlineto
          674 hlineto
          34 160 rlineto
          -674 hlineto
          99 463 rlineto
          endchar
        </CharString>
        <CharString name="Ecedillabreve">
          -32 1116 1848 rmoveto
          -126 -27 -98 -72 -114 hhcurveto
          -97 -62 53 93 19 4 19 4 14 hvcurveto
          -126 hlineto
          -6 -21 -4 -25 -28 vvcurveto
          -141 118 -91 150 204 139 112 194 41 vhcurveto
          6 -567 rmoveto
          35 162 rlineto
          -896 hlineto
          -307 -1443 rlineto
          405 hlineto
          -87 -159 -16 -72 rlineto
          59 hlineto
          108 47 -20 -45 -44 -46 -25 -79 -48 -48 9 16 -43 hvcurveto
          -24 -114 rlineto
          -17 45 73 -12 59 hhcurveto
          148 98 79 119 95 -70 54 -119 -4 hvcurveto
          80 140 rlineto
          354 hlineto
          34 162 rlineto
          -711 hlineto
          105 496 rlineto
          674 hlineto
          34 160 rlineto
          -674 hlineto
          99 463 rlineto
          endchar
        </CharString>
        <CharString name="Ecircumflex">
          -32 1010 162 -100 callsubr
          2 1858 -93 callsubr
        </CharString>
        <CharString name="Ecircumflexacute">
          -32 1010 162 -100 callsubr
          -147 1798 -56 callsubr
          101 32 -10 callsubr
          endchar
        </CharString>
        <CharString name="Ecircumflexbelow">
          -32 1010 162 -100 callsubr
          -406 -165 -93 callsubr
        </CharString>
        <CharString name="Ecircumflexdotbelow">
          -32 1010 162 -100 callsubr
          2 1858 -94 callsubr
          -717 -1993 -102 callgsubr
        </CharString>
        <CharString name="Ecircumflexgrave">
          -32 1010 162 -100 callsubr
          -147 1798 -56 callsubr
          287 32 -10 callgsubr
          endchar
        </CharString>
        <CharString name="Ecircumflexhookabove">
          -32 1010 162 -100 callsubr
          -147 1798 -56 callsubr
          36 155 rmoveto
          6 25 25 3 27 hhcurveto
          54 35 -25 -37 -44 -45 -32 -59 -12 hvcurveto
          62 -70 rlineto
          103 28 60 63 81 vvcurveto
          84 -70 55 -112 -28 -38 -5 -7 -16 vhcurveto
          endchar
        </CharString>
        <CharString name="Ecircumflextilde">
          -32 1010 162 -100 callsubr
          79 1833 -44 callsubr
        </CharString>
        <CharString name="Ecyrillic">
          1 callgsubr
          endchar
        </CharString>
        <CharString name="Edblgrave">
          -32 1010 162 -100 callsubr
          -332 1560 -57 callsubr
          519 -289 -57 callsubr
          endchar
        </CharString>
        <CharString name="Edieresis">
          -32 1010 162 -100 callsubr
          -271 1618 -106 callgsubr
          endchar
        </CharString>
        <CharString name="Edotaccent">
          -32 1010 162 -100 callsubr
          -83 1611 -102 callgsubr
        </CharString>
        <CharString name="Edotbelow">
          -32 1010 162 -100 callsubr
          -495 -433 -102 callgsubr
        </CharString>
        <CharString name="Efcyrillic">
          448 832 -20 rmoveto
          32 151 rlineto
          448 13 328 296 390 vvcurveto
          290 -199 188 -324 14 vhcurveto
          97 callsubr
          -178 hlineto
          -30 -141 rlineto
          -448 -13 -328 -296 -390 vvcurveto
          -290 199 -188 324 -14 vhcurveto
          -32 -151 rlineto
          -308 647 rmoveto
          295 237 226 322 13 vhcurveto
          -185 -869 rlineto
          -233 7 -141 127 201 vvcurveto
          1111 199 rmoveto
          -295 -236 -226 -323 -13 vhcurveto
          185 869 rlineto
          233 -7 141 -127 -201 vvcurveto
          endchar
        </CharString>
        <CharString name="Egrave">
          -32 1010 162 -100 callsubr
          -202 1560 -57 callsubr
          endchar
        </CharString>
        <CharString name="Ehookabove">
          -32 1010 162 -100 callsubr
          -258 1763 -64 callsubr
        </CharString>
        <CharString name="Einvertedbreve">
          -32 1010 162 -100 callsubr
          201 1542 -60 callsubr
        </CharString>
        <CharString name="Elcyrillic">
          177 1138 hmoveto
          -46 callsubr
        </CharString>
        <CharString name="Emacron">
          -32 1010 162 -100 callsubr
          242 1750 -76 callgsubr
        </CharString>
        <CharString name="Emacronacute">
          -32 1010 162 -100 callsubr
          208 1592 28 callgsubr
          298 238 -10 callsubr
          endchar
        </CharString>
        <CharString name="Emacrongrave">
          -32 1010 162 -100 callsubr
          208 1592 28 callgsubr
          432 238 -10 callgsubr
          endchar
        </CharString>
        <CharString name="Emcyrillic">
          550 255 29 callgsubr
        </CharString>
        <CharString name="Encyrillic">
          280 1241 6 callgsubr
        </CharString>
        <CharString name="Eogonek">
          -32 80 hmoveto
          723 48 callsubr
          31 148 rlineto
          -712 hlineto
          106 496 rlineto
          674 hlineto
          34 160 rlineto
          -675 hlineto
          100 463 rlineto
          711 -30 callsubr
          -896 hlineto
          endchar
        </CharString>
        <CharString name="Epsilongreek">
          -32 1010 162 -100 callsubr
          endchar
        </CharString>
        <CharString name="Epsilontonosgreek">
          232 183 18 callsubr
          953 -1281 -100 callsubr
          endchar
        </CharString>
        <CharString name="Ercyrillic">
          68 392 1443 -68 callsubr
          endchar
        </CharString>
        <CharString name="Ereversedcyrillic">
          -81 callgsubr
          endchar
        </CharString>
        <CharString name="Escyrillic">
          246 1297 978 -93 callgsubr
          endchar
        </CharString>
        <CharString name="Etagreek">
          270 1236 6 callgsubr
        </CharString>
        <CharString name="Etatonosgreek">
          534 183 18 callsubr
          1179 -1443 -23 callgsubr
        </CharString>
        <CharString name="Eth">
          247 298 160 rmoveto
          106 496 rlineto
          326 hlineto
          34 162 rlineto
          -326 hlineto
          99 465 rlineto
          239 hlineto
          301 156 -153 -297 -392 -253 -281 -352 hvcurveto
          -241 1283 rmoveto
          -132 -625 rlineto
          -141 hlineto
          -35 -162 rlineto
          142 hlineto
          -139 -656 rlineto
          560 hlineto
          460 317 349 506 369 -228 219 -384 hvcurveto
          endchar
        </CharString>
        <CharString name="Etilde">
          -32 1010 162 -100 callsubr
          28 1546 -102 callsubr
          endchar
        </CharString>
        <CharString name="Etildebelow">
          -32 1010 162 -100 callsubr
          -372 -442 -102 callsubr
          endchar
        </CharString>
        <CharString name="Euro">
          73 1403 1424 rmoveto
          22 -51 -109 21 -105 hhcurveto
          -386 -272 -192 -320 -105 hvcurveto
          -160 hlineto
          -29 -136 rlineto
          156 hlineto
          -9 -57 -5 -61 -63 vvcurveto
          -3 0 -2 -3 vvcurveto
          -185 hlineto
          -29 -136 rlineto
          230 hlineto
          -303 69 288 -202 366 hhcurveto
          23 10 0 1 8 hvcurveto
          35 164 rlineto
          -9 -11 -1 -11 hhcurveto
          -292 -209 131 210 -67 hvcurveto
          425 hlineto
          29 136 rlineto
          -477 hlineto
          6 0 6 6 vvcurveto
          61 5 57 10 53 vhcurveto
          505 hlineto
          29 136 rlineto
          -494 hlineto
          219 89 193 126 271 hhcurveto
          89 102 -19 -21 46 hvcurveto
          endchar
        </CharString>
        <CharString name="F">
          -82 264 24 callgsubr
          endchar
        </CharString>
        <CharString name="Fdotaccent">
          -82 264 24 callgsubr
          804 1611 -102 callgsubr
        </CharString>
        <CharString name="G">
          -92 callsubr
          endchar
        </CharString>
        <CharString name="Gacute">
          -92 callsubr
          -385 1045 -82 callgsubr
        </CharString>
        <CharString name="Gammagreek">
          -102 265 hmoveto
          39 callsubr
          673 -30 callsubr
          -858 -98 callsubr
          endchar
        </CharString>
        <CharString name="Gbreve">
          -92 callsubr
          -727 1333 -87 callsubr
          endchar
        </CharString>
        <CharString name="Gcaron">
          -92 callsubr
          -529 1045 -86 callsubr
        </CharString>
        <CharString name="Gcircumflex">
          -92 callsubr
          -349 1343 -93 callsubr
        </CharString>
        <CharString name="Gcommaaccent">
          -92 callsubr
          -804 -991 -40 callsubr
        </CharString>
        <CharString name="Gdotaccent">
          -92 callsubr
          -434 1096 -102 callgsubr
        </CharString>
        <CharString name="Gecyrillic">
          75 callsubr
          endchar
        </CharString>
        <CharString name="Geupturncyrillic">
          -93 542 1281 rmoveto
          683 hlineto
          86 callgsubr
          -167 hlineto
          -60 -285 rlineto
          -701 -98 callsubr
          185 hlineto
          endchar
        </CharString>
        <CharString name="Gjecyrillic">
          75 callsubr
          829 1560 -82 callgsubr
        </CharString>
        <CharString name="Gmacron">
          -92 callsubr
          -109 1235 -76 callgsubr
        </CharString>
        <CharString name="H">
          270 1236 6 callgsubr
        </CharString>
        <CharString name="Hardsigncyrillic">
          260 860 hmoveto
          303 243 203 299 251 -191 155 -270 hvcurveto
          -278 hlineto
          114 535 rlineto
          -513 74 callsubr
          330 hlineto
          -273 -1281 rlineto
          618 748 rmoveto
          183 127 -82 -175 -194 -164 -137 -213 hvcurveto
          -333 hlineto
          126 588 rlineto
          endchar
        </CharString>
        <CharString name="Hbar">
          270 1226 819 rmoveto
          -788 hlineto
          51 240 rlineto
          788 hlineto
          321 162 rmoveto
          -102 hlineto
          47 222 rlineto
          -184 hlineto
          -47 -222 rlineto
          -788 hlineto
          47 222 rlineto
          -184 hlineto
          -47 -222 rlineto
          -107 hlineto
          -34 -162 rlineto
          106 hlineto
          -225 -1059 rlineto
          184 hlineto
          140 657 rlineto
          788 hlineto
          -140 -657 rlineto
          184 hlineto
          225 1059 rlineto
          102 hlineto
          endchar
        </CharString>
        <CharString name="Hbrevebelow">
          270 1236 hmoveto
          -90 callsubr
          -720 -156 -87 callsubr
          endchar
        </CharString>
        <CharString name="Hcaron">
          270 1236 hmoveto
          -90 callsubr
          -132 1560 -86 callsubr
        </CharString>
        <CharString name="Hcedilla">
          270 1359 1443 rmoveto
          -133 -624 rlineto
          -788 hlineto
          133 624 rlineto
          -184 hlineto
          -307 -1443 rlineto
          47 hlineto
          -87 -159 -16 -72 rlineto
          59 hlineto
          108 47 -20 -45 -44 -46 -25 -79 -48 -48 9 16 -43 hvcurveto
          -24 -114 rlineto
          -17 45 73 -12 59 hhcurveto
          148 98 79 119 95 -70 54 -119 -4 hvcurveto
          80 140 140 657 rlineto
          788 hlineto
          -140 -657 rlineto
          184 hlineto
          307 1443 rlineto
          endchar
        </CharString>
        <CharString name="Hcircumflex">
          270 1236 hmoveto
          -90 callsubr
          48 1858 -93 callsubr
        </CharString>
        <CharString name="Hdieresis">
          270 1236 hmoveto
          -90 callsubr
          -225 1618 -106 callgsubr
          endchar
        </CharString>
        <CharString name="Hdotaccent">
          270 1236 hmoveto
          -90 callsubr
          -37 1611 -102 callgsubr
        </CharString>
        <CharString name="Hdotbelow">
          270 1236 hmoveto
          -90 callsubr
          -435 -433 -102 callgsubr
        </CharString>
        <CharString name="I">
          -702 264 89 callsubr
        </CharString>
        <CharString name="I.1">
          -262 1032 1289 rmoveto
          33 154 rlineto
          -274 hlineto
          -184 hlineto
          -274 hlineto
          -33 -154 rlineto
          274 hlineto
          -241 -1135 rlineto
          -274 hlineto
          -33 -154 rlineto
          274 hlineto
          184 hlineto
          274 hlineto
          33 154 rlineto
          -274 hlineto
          241 1135 rlineto
          endchar
        </CharString>
        <CharString name="IAcyrillic">
          -61 callsubr
          endchar
        </CharString>
        <CharString name="IJ">
          324 264 hmoveto
          -3 callgsubr
          -307 -1443 rlineto
          449 330 -67 callgsubr
          endchar
        </CharString>
        <CharString name="IJacute">
          324 264 hmoveto
          -3 callgsubr
          -307 -1443 rlineto
          507 1560 rmoveto
          321 289 rlineto
          -202 hlineto
          -281 -289 rlineto
          104 -1230 -67 callgsubr
          1084 1230 -82 callgsubr
        </CharString>
        <CharString name="IUcyrillic">
          852 1277 142 rmoveto
          -250 -160 183 287 380 228 309 333 250 160 -183 -287 -380 -228 -309 -333 hvcurveto
          -834 677 rmoveto
          133 624 rlineto
          -184 hlineto
          -307 -1443 rlineto
          183 hlineto
          140 657 rlineto
          275 hlineto
          -1 -17 0 -17 -17 vvcurveto
          -380 236 -249 359 433 313 388 472 380 -236 249 -359 -366 -280 -277 -370 -78 vhcurveto
          endchar
        </CharString>
        <CharString name="Iacute">
          -702 264 hmoveto
          -3 callgsubr
          -307 -1443 rlineto
          507 1560 -82 callgsubr
        </CharString>
        <CharString name="Iacute.1">
          -262 1126 1849 rmoveto
          -202 hlineto
          -281 -289 rlineto
          162 hlineto
          -198 -117 rmoveto
          -274 hlineto
          -33 -154 rlineto
          274 hlineto
          -241 -1135 rlineto
          -274 hlineto
          -33 -154 rlineto
          274 hlineto
          184 hlineto
          274 hlineto
          33 154 rlineto
          -274 hlineto
          241 1135 rlineto
          274 hlineto
          33 154 rlineto
          -274 hlineto
          endchar
        </CharString>
        <CharString name="Ibreve">
          -702 264 hmoveto
          -3 callgsubr
          -307 -1443 rlineto
          165 1848 -87 callsubr
          endchar
        </CharString>
        <CharString name="Ibreve.1">
          -262 979 1848 rmoveto
          -126 -27 -98 -72 -114 hhcurveto
          -97 -62 53 93 19 4 19 4 14 hvcurveto
          -126 hlineto
          -6 -21 -4 -25 -28 vvcurveto
          -141 118 -91 150 204 139 112 194 41 vhcurveto
          -498 -405 rmoveto
          -274 hlineto
          -33 -154 rlineto
          274 hlineto
          -241 -1135 rlineto
          -274 hlineto
          -33 -154 rlineto
          274 hlineto
          184 hlineto
          274 hlineto
          33 154 rlineto
          -274 hlineto
          241 1135 rlineto
          274 hlineto
          33 154 rlineto
          -274 hlineto
          endchar
        </CharString>
        <CharString name="Icaron">
          -702 264 hmoveto
          -3 callgsubr
          -307 -1443 rlineto
          363 1560 -86 callsubr
        </CharString>
        <CharString name="Icaron.1">
          -262 795 1560 rmoveto
          346 298 rlineto
          -178 hlineto
          -221 -192 rlineto
          -6 hlineto
          -141 192 rlineto
          -154 hlineto
          220 -298 rlineto
          -54 -117 rmoveto
          -274 hlineto
          -33 -154 rlineto
          274 hlineto
          -241 -1135 rlineto
          -274 hlineto
          -33 -154 rlineto
          274 hlineto
          184 hlineto
          274 hlineto
          33 154 rlineto
          -274 hlineto
          241 1135 rlineto
          274 hlineto
          33 154 rlineto
          -274 hlineto
          endchar
        </CharString>
        <CharString name="Icircumflex">
          -702 264 hmoveto
          -3 callgsubr
          -307 -1443 rlineto
          543 1858 -93 callsubr
        </CharString>
        <CharString name="Icircumflex.1">
          -262 761 1752 rmoveto
          6 hlineto
          140 -192 rlineto
          154 hlineto
          -220 298 rlineto
          -134 hlineto
          -346 -298 rlineto
          178 hlineto
          493 -271 rmoveto
          33 154 rlineto
          -274 hlineto
          -184 hlineto
          -274 hlineto
          -33 -154 rlineto
          274 hlineto
          -241 -1135 rlineto
          -274 hlineto
          -33 -154 rlineto
          274 hlineto
          184 hlineto
          274 hlineto
          33 154 rlineto
          -274 hlineto
          241 1135 rlineto
          endchar
        </CharString>
        <CharString name="Icyrillic">
          83 callgsubr
        </CharString>
        <CharString name="Icyrillic.1">
          -242 1042 1289 rmoveto
          33 154 rlineto
          -274 hlineto
          -184 hlineto
          -274 hlineto
          -33 -154 rlineto
          274 hlineto
          -241 -1135 rlineto
          -274 hlineto
          -33 -154 rlineto
          274 hlineto
          184 hlineto
          274 hlineto
          33 154 rlineto
          -274 hlineto
          241 1135 rlineto
          endchar
        </CharString>
        <CharString name="Idblgrave">
          -702 264 hmoveto
          -3 callgsubr
          -307 -1443 rlineto
          209 1560 -57 callsubr
          519 -289 -57 callsubr
          endchar
        </CharString>
        <CharString name="Idblgrave.1">
          -262 969 1560 rmoveto
          -159 289 rlineto
          -182 hlineto
          199 -289 rlineto
          -178 0 rmoveto
          -159 289 rlineto
          -182 hlineto
          199 -289 rlineto
          525 -271 rmoveto
          33 154 rlineto
          -274 hlineto
          -184 hlineto
          -274 hlineto
          -33 -154 rlineto
          274 hlineto
          -241 -1135 rlineto
          -274 hlineto
          -33 -154 rlineto
          274 hlineto
          184 hlineto
          274 hlineto
          33 154 rlineto
          -274 hlineto
          241 1135 rlineto
          endchar
        </CharString>
        <CharString name="Idieresis">
          28 callsubr
        </CharString>
        <CharString name="Idieresis.1">
          -262 940 1618 rmoveto
          60 50 49 61 61 -50 49 -60 -60 -50 -49 -61 -61 50 -49 60 hvcurveto
          -372 0 rmoveto
          60 50 49 61 61 -50 49 -60 -60 -50 -49 -61 -61 50 -49 60 hvcurveto
          464 -329 rmoveto
          33 154 rlineto
          -274 hlineto
          -184 hlineto
          -274 hlineto
          -33 -154 rlineto
          274 hlineto
          -241 -1135 rlineto
          -274 hlineto
          -33 -154 rlineto
          274 hlineto
          184 hlineto
          274 hlineto
          33 154 rlineto
          -274 hlineto
          241 1135 rlineto
          endchar
        </CharString>
        <CharString name="Idieresisacute">
          -702 264 hmoveto
          -3 callgsubr
          -307 -1443 rlineto
          387 1830 -10 callsubr
          -331 -492 -47 callgsubr
        </CharString>
        <CharString name="Idieresisacute.1">
          -262 1077 2046 rmoveto
          -178 hlineto
          -214 -216 rlineto
          154 hlineto
          -21 -170 rmoveto
          -59 47 -47 57 58 47 47 59 59 -47 47 -58 -57 -47 -47 -59 vhcurveto
          -250 -106 rmoveto
          57 47 47 59 59 -47 47 -57 -58 -47 -47 -59 -59 47 -47 58 hvcurveto
          39 -111 rmoveto
          -274 hlineto
          -33 -154 rlineto
          274 hlineto
          -241 -1135 rlineto
          -274 hlineto
          -33 -154 rlineto
          274 hlineto
          184 hlineto
          274 hlineto
          33 154 rlineto
          -274 hlineto
          241 1135 rlineto
          274 hlineto
          33 154 rlineto
          -274 hlineto
          endchar
        </CharString>
        <CharString name="Idotaccent">
          -702 264 hmoveto
          -3 callgsubr
          -307 -1443 rlineto
          458 1611 -102 callgsubr
        </CharString>
        <CharString name="Idotaccent.1">
          -262 756 1611 rmoveto
          68 56 56 68 68 -56 56 -68 -68 -56 -56 -68 -68 56 -56 68 hvcurveto
          276 -322 rmoveto
          33 154 rlineto
          -274 hlineto
          -184 hlineto
          -274 hlineto
          -33 -154 rlineto
          274 hlineto
          -241 -1135 rlineto
          -274 hlineto
          -33 -154 rlineto
          274 hlineto
          184 hlineto
          274 hlineto
          33 154 rlineto
          -274 hlineto
          241 1135 rlineto
          endchar
        </CharString>
        <CharString name="Idotbelow">
          -702 264 hmoveto
          -3 callgsubr
          -307 -1443 rlineto
          22 -433 -102 callgsubr
        </CharString>
        <CharString name="Idotbelow.1">
          -262 323 -185 rmoveto
          -68 -56 -56 -68 -68 56 -56 68 68 56 56 68 68 -56 56 -68 hvcurveto
          709 1474 rmoveto
          33 154 rlineto
          -274 hlineto
          -184 hlineto
          -274 hlineto
          -33 -154 rlineto
          274 hlineto
          -241 -1135 rlineto
          -274 hlineto
          -33 -154 rlineto
          274 hlineto
          184 hlineto
          274 hlineto
          33 154 rlineto
          -274 hlineto
          241 1135 rlineto
          endchar
        </CharString>
        <CharString name="Iecyrillic">
          -22 1015 162 -100 callsubr
          endchar
        </CharString>
        <CharString name="Igrave">
          -702 264 hmoveto
          -3 callgsubr
          -307 -1443 rlineto
          339 1560 -57 callsubr
          endchar
        </CharString>
        <CharString name="Igrave.1">
          -262 779 1560 rmoveto
          -159 289 rlineto
          -182 hlineto
          199 -289 rlineto
          395 -271 rmoveto
          33 154 rlineto
          -274 hlineto
          -184 hlineto
          -274 hlineto
          -33 -154 rlineto
          274 hlineto
          -241 -1135 rlineto
          -274 hlineto
          -33 -154 rlineto
          274 hlineto
          184 hlineto
          274 hlineto
          33 154 rlineto
          -274 hlineto
          241 1135 rlineto
          endchar
        </CharString>
        <CharString name="Ihookabove">
          -702 264 hmoveto
          -3 callgsubr
          -307 -1443 rlineto
          283 1763 -64 callsubr
        </CharString>
        <CharString name="Ihookabove.1">
          -262 689 1527 rmoveto
          129 27 74 71 95 vvcurveto
          92 -76 59 -122 -28 -42 -5 -7 -19 vhcurveto
          -24 -96 rlineto
          6 27 27 3 31 hhcurveto
          58 35 -25 -41 -48 -45 -36 -67 -12 hvcurveto
          385 -321 rmoveto
          33 154 rlineto
          -274 hlineto
          -184 hlineto
          -274 hlineto
          -33 -154 rlineto
          274 hlineto
          -241 -1135 rlineto
          -274 hlineto
          -33 -154 rlineto
          274 hlineto
          184 hlineto
          274 hlineto
          33 154 rlineto
          -274 hlineto
          241 1135 rlineto
          endchar
        </CharString>
        <CharString name="Iicyrillic">
          276 1055 hmoveto
          -58 callgsubr
          endchar
        </CharString>
        <CharString name="Iinvertedbreve">
          -702 264 hmoveto
          -3 callgsubr
          -307 -1443 rlineto
          742 1542 -60 callsubr
        </CharString>
        <CharString name="Iinvertedbreve.1">
          -262 1040 1542 rmoveto
          6 17 4 25 28 vvcurveto
          141 -118 95 -150 -204 -139 -116 -190 -41 vhcurveto
          126 hlineto
          122 27 98 76 114 hhcurveto
          97 62 -57 -93 -19 -4 -19 -4 -10 hvcurveto
          118 -253 rmoveto
          33 154 rlineto
          -274 hlineto
          -184 hlineto
          -274 hlineto
          -33 -154 rlineto
          274 hlineto
          -241 -1135 rlineto
          -274 hlineto
          -33 -154 rlineto
          274 hlineto
          184 hlineto
          274 hlineto
          33 154 rlineto
          -274 hlineto
          241 1135 rlineto
          endchar
        </CharString>
        <CharString name="Iishortcyrillic">
          276 1055 hmoveto
          -58 callgsubr
          -595 708 -78 callsubr
        </CharString>
        <CharString name="Imacron">
          -702 264 hmoveto
          -3 callgsubr
          -307 -1443 rlineto
          783 1750 -76 callgsubr
        </CharString>
        <CharString name="Imacron.1">
          -262 1081 1750 rmoveto
          -634 hlineto
          -25 -116 rlineto
          634 hlineto
          -449 -191 rmoveto
          -274 hlineto
          -33 -154 rlineto
          274 hlineto
          -241 -1135 rlineto
          -274 hlineto
          -33 -154 rlineto
          274 hlineto
          184 hlineto
          274 hlineto
          33 154 rlineto
          -274 hlineto
          241 1135 rlineto
          274 hlineto
          33 154 rlineto
          -274 hlineto
          endchar
        </CharString>
        <CharString name="Iocyrillic">
          -22 1015 162 -100 callsubr
          -271 1618 -106 callgsubr
          endchar
        </CharString>
        <CharString name="Iogonek">
          -702 100 -427 rmoveto
          47 47 9 12 17 hvcurveto
          74 callgsubr
          -16 -25 -4 -32 hhcurveto
          -59 -36 27 50 64 44 68 139 98 hvcurveto
          17 12 303 1425 rlineto
          -15 callsubr
          -311 -1461 rlineto
          0 vlineto
          -112 -98 -52 -80 -82 vvcurveto
          -90 75 -59 113 vhcurveto
          endchar
        </CharString>
        <CharString name="Iogonek.1">
          -262 300 1289 rmoveto
          274 hlineto
          -241 -1135 rlineto
          -274 hlineto
          -33 -154 rlineto
          559 48 callsubr
          30 140 rlineto
          -274 hlineto
          241 1135 rlineto
          274 -19 callsubr
          endchar
        </CharString>
        <CharString name="Iotadieresisgreek">
          28 callsubr
        </CharString>
        <CharString name="Iotadieresisgreek.1">
          -262 940 1618 rmoveto
          60 50 49 61 61 -50 49 -60 -60 -50 -49 -61 -61 50 -49 60 hvcurveto
          -372 0 rmoveto
          60 50 49 61 61 -50 49 -60 -60 -50 -49 -61 -61 50 -49 60 hvcurveto
          464 -329 rmoveto
          33 154 rlineto
          -274 hlineto
          -184 hlineto
          -274 hlineto
          -33 -154 rlineto
          274 hlineto
          -241 -1135 rlineto
          -274 hlineto
          -33 -154 rlineto
          274 hlineto
          184 hlineto
          274 hlineto
          33 154 rlineto
          -274 hlineto
          241 1135 rlineto
          endchar
        </CharString>
        <CharString name="Iotagreek">
          -702 264 89 callsubr
        </CharString>
        <CharString name="Iotagreek.1">
          -262 1032 1289 rmoveto
          33 154 rlineto
          -274 hlineto
          -184 hlineto
          -274 hlineto
          -33 -154 rlineto
          274 hlineto
          -241 -1135 rlineto
          -274 hlineto
          -33 -154 rlineto
          274 hlineto
          184 hlineto
          274 hlineto
          33 154 rlineto
          -274 hlineto
          241 1135 rlineto
          endchar
        </CharString>
        <CharString name="Iotatonosgreek">
          -438 183 18 callsubr
          207 -1443 -69 callgsubr
          endchar
        </CharString>
        <CharString name="Iotatonosgreek.1">
          37 542 1443 rmoveto
          -221 hlineto
          -138 -299 rlineto
          143 hlineto
          1005 145 rmoveto
          33 154 rlineto
          -274 hlineto
          -184 hlineto
          -274 hlineto
          -33 -154 rlineto
          274 hlineto
          -241 -1135 rlineto
          -274 hlineto
          -33 -154 rlineto
          274 hlineto
          184 hlineto
          274 hlineto
          33 154 rlineto
          -274 hlineto
          241 1135 rlineto
          endchar
        </CharString>
        <CharString name="Itilde">
          -702 264 hmoveto
          -3 callgsubr
          -307 -1443 rlineto
          569 1546 -102 callsubr
          endchar
        </CharString>
        <CharString name="Itilde.1">
          -262 979 1802 rmoveto
          -96 -20 -41 -47 -42 hhcurveto
          -75 -21 152 -141 hhcurveto
          -114 -89 -95 -160 -29 hvcurveto
          118 hlineto
          93 16 43 49 46 hhcurveto
          79 26 -152 132 hhcurveto
          109 89 100 156 32 hvcurveto
          -490 -359 rmoveto
          -274 hlineto
          -33 -154 rlineto
          274 hlineto
          -241 -1135 rlineto
          -274 hlineto
          -33 -154 rlineto
          274 hlineto
          184 hlineto
          274 hlineto
          33 154 rlineto
          -274 hlineto
          241 1135 rlineto
          274 hlineto
          33 154 rlineto
          -274 hlineto
          endchar
        </CharString>
        <CharString name="Itildebelow">
          -702 264 hmoveto
          -3 callgsubr
          -307 -1443 rlineto
          145 -442 -102 callsubr
          endchar
        </CharString>
        <CharString name="Itildebelow.1">
          -262 104 -432 rmoveto
          93 16 43 49 46 hhcurveto
          79 26 -152 132 hhcurveto
          109 89 100 156 32 hvcurveto
          -118 hlineto
          -96 -20 -41 -47 -42 hhcurveto
          -75 -21 152 -141 hhcurveto
          -114 -89 -95 -160 -29 hvcurveto
          1046 1721 rmoveto
          33 154 rlineto
          -274 hlineto
          -184 hlineto
          -274 hlineto
          -33 -154 rlineto
          274 hlineto
          -241 -1135 rlineto
          -274 hlineto
          -33 -154 rlineto
          274 hlineto
          184 hlineto
          274 hlineto
          33 154 rlineto
          -274 hlineto
          241 1135 rlineto
          endchar
        </CharString>
        <CharString name="J">
          -140 65 330 -67 callgsubr
          endchar
        </CharString>
        <CharString name="Jcircumflex">
          -140 65 330 -67 callgsubr
          1120 1528 -93 callsubr
        </CharString>
        <CharString name="Jecyrillic">
          -130 70 330 -67 callgsubr
          endchar
        </CharString>
        <CharString name="K">
          -66 callgsubr
          endchar
        </CharString>
        <CharString name="Kacute">
          -66 callgsubr
          873 1560 -82 callgsubr
        </CharString>
        <CharString name="Kacyrillic">
          104 1459 1443 rmoveto
          -245 hlineto
          -768 -664 rlineto
          -10 hlineto
          140 664 rlineto
          -184 hlineto
          -307 -1443 rlineto
          184 hlineto
          149 700 rlineto
          10 hlineto
          535 -700 rlineto
          220 hlineto
          -559 733 rlineto
          endchar
        </CharString>
        <CharString name="Kappagreek">
          -66 callgsubr
          endchar
        </CharString>
        <CharString name="Kcaron">
          -66 callgsubr
          729 1560 -86 callsubr
        </CharString>
        <CharString name="Kcommaaccent">
          -66 callgsubr
          370 -476 -40 callsubr
        </CharString>
        <CharString name="Kdotbelow">
          -66 callgsubr
          450 -433 -102 callgsubr
        </CharString>
        <CharString name="Kjecyrillic">
          104 1280 1849 rmoveto
          -202 hlineto
          -281 -289 rlineto
          162 hlineto
          500 -117 rmoveto
          -245 hlineto
          -768 -664 rlineto
          -10 hlineto
          140 664 rlineto
          -184 hlineto
          -307 -1443 rlineto
          184 hlineto
          149 700 rlineto
          10 hlineto
          535 -700 rlineto
          220 hlineto
          -559 733 rlineto
          endchar
        </CharString>
        <CharString name="Klinebelow">
          -66 callgsubr
          784 -251 -76 callgsubr
        </CharString>
        <CharString name="L">
          -88 992 162 78 callsubr
        </CharString>
        <CharString name="Lacute">
          -88 992 162 -36 callgsubr
          -372 1560 -82 callgsubr
        </CharString>
        <CharString name="Lambdagreek">
          105 840 1224 rmoveto
          4 hlineto
          161 -1224 rlineto
          171 hlineto
          -204 1443 rlineto
          -181 hlineto
          -816 -20 callgsubr
          198 hlineto
          endchar
        </CharString>
        <CharString name="Lcaron">
          -88 907 38 callgsubr
          -85 -1281 78 callsubr
        </CharString>
        <CharString name="Lcircumflexbelow">
          -88 992 162 -36 callgsubr
          -419 -165 -93 callsubr
        </CharString>
        <CharString name="Lcommaaccent">
          -88 992 162 -36 callgsubr
          -588 -476 -40 callsubr
        </CharString>
        <CharString name="Ldotbelow">
          -88 992 162 -36 callgsubr
          -508 -433 -102 callgsubr
        </CharString>
        <CharString name="Ldotbelowmacron">
          -88 992 162 -36 callgsubr
          -508 -433 -103 callsubr
          412 2183 -76 callgsubr
        </CharString>
        <CharString name="Ljecyrillic">
          918 493 540 rmoveto
          203 741 rlineto
          521 hlineto
          -273 -1281 rlineto
          570 hlineto
          327 223 257 260 251 -191 160 -270 hvcurveto
          -278 hlineto
          110 515 rlineto
          -871 hlineto
          -243 -896 rlineto
          -226 -61 -74 -165 -162 hhcurveto
          -16 -26 3 3 -11 hvcurveto
          -34 -161 rlineto
          -6 16 25 -4 27 hhcurveto
          278 116 206 343 94 hvcurveto
          1073 228 rmoveto
          183 127 -86 -192 -182 -166 -148 -215 hvcurveto
          -333 hlineto
          130 608 rlineto
          endchar
        </CharString>
        <CharString name="Llinebelow">
          -88 992 162 -36 callgsubr
          -174 -251 -76 callgsubr
        </CharString>
        <CharString name="Lslash">
          -88 299 162 rmoveto
          106 497 339 158 33 152 -340 -158 134 632 rlineto
          -184 hlineto
          -155 -728 -155 -72 -33 -152 156 73 -120 -564 rlineto
          878 hlineto
          34 162 rlineto
          endchar
        </CharString>
        <CharString name="M">
          540 250 29 callgsubr
        </CharString>
        <CharString name="Macute">
          540 250 -68 callgsubr
          1075 1560 -82 callgsubr
        </CharString>
        <CharString name="Mdotaccent">
          540 250 -68 callgsubr
          1026 1611 -102 callgsubr
        </CharString>
        <CharString name="Mdotbelow">
          540 250 -68 callgsubr
          643 -433 -102 callgsubr
        </CharString>
        <CharString name="Mugreek">
          540 250 29 callgsubr
        </CharString>
        <CharString name="N">
          268 -87 callgsubr
          endchar
        </CharString>
        <CharString name="Nacute">
          268 -87 callgsubr
          1001 1560 -82 callgsubr
        </CharString>
        <CharString name="Ncaron">
          268 -87 callgsubr
          857 1560 -86 callsubr
        </CharString>
        <CharString name="Ncircumflexbelow">
          268 -87 callgsubr
          597 -165 -93 callsubr
        </CharString>
        <CharString name="Ncommaaccent">
          268 -87 callgsubr
          428 -476 -40 callsubr
        </CharString>
        <CharString name="Ndotaccent">
          268 -87 callgsubr
          952 1611 -102 callgsubr
        </CharString>
        <CharString name="Ndotbelow">
          268 -87 callgsubr
          508 -433 -102 callgsubr
        </CharString>
        <CharString name="Ngrave">
          268 -87 callgsubr
          833 1560 -57 callsubr
          endchar
        </CharString>
        <CharString name="Njecyrillic">
          926 982 hmoveto
          570 hlineto
          320 200 227 230 220 -179 141 -252 hvcurveto
          -301 hlineto
          70 callgsubr
          -184 39 callgsubr
          -708 16 callgsubr
          -184 95 callgsubr
          140 657 rlineto
          709 hlineto
          78 -497 rmoveto
          106 498 rlineto
          298 hlineto
          165 115 -71 -151 -155 -131 -121 -220 hvcurveto
          endchar
        </CharString>
        <CharString name="Nlinebelow">
          268 -87 callgsubr
          842 -251 -76 callgsubr
        </CharString>
        <CharString name="Ntilde">
          268 -87 callgsubr
          1063 1546 -102 callsubr
          endchar
        </CharString>
        <CharString name="Nugreek">
          268 -87 callgsubr
          endchar
        </CharString>
        <CharString name="NumberSignCyrillic">
          1019 259 hmoveto
          244 1150 rlineto
          16 hlineto
          503 -1150 rlineto
          182 117 callsubr
          -245 -1153 rlineto
          -16 hlineto
          -504 1153 rlineto
          -180 -98 callsubr
          2043 499 rmoveto
          31 147 rlineto
          -650 hlineto
          -31 -147 rlineto
          641 642 rmoveto
          -141 -88 -100 -123 -100 -65 73 111 142 85 99 122 102 67 -73 -111 vhcurveto
          165 5 rmoveto
          189 -132 127 -195 -221 -159 -161 -222 -190 129 -126 195 223 160 160 223 vhcurveto
          endchar
        </CharString>
        <CharString name="O">
          -104 callgsubr
          endchar
        </CharString>
        <CharString name="OE">
          1080 1192 hmoveto
          896 hlineto
          34 162 rlineto
          -713 hlineto
          106 496 rlineto
          675 hlineto
          34 160 rlineto
          -676 hlineto
          100 463 rlineto
          712 -30 callsubr
          -896 hlineto
          -56 -264 rlineto
          -3 hlineto
          184 -100 -179 103 -233 hhcurveto
          -436 -315 -388 -472 -380 238 -249 362 168 155 59 117 122 hvcurveto
          3 hlineto
          118 678 rmoveto
          -380 -230 -309 -336 -253 -162 183 287 380 230 309 336 253 162 -183 -287 vhcurveto
          endchar
        </CharString>
        <CharString name="Oacute">
          -104 callgsubr
          277 1583 -82 callgsubr
        </CharString>
        <CharString name="Obreve">
          -104 callgsubr
          -65 1871 -87 callsubr
          endchar
        </CharString>
        <CharString name="Ocaron">
          -104 callgsubr
          133 1583 -86 callsubr
        </CharString>
        <CharString name="Ocircumflex">
          -104 callgsubr
          313 1881 -93 callsubr
        </CharString>
        <CharString name="Ocircumflexacute">
          -104 callgsubr
          164 1821 -56 callsubr
          101 32 -10 callsubr
          endchar
        </CharString>
        <CharString name="Ocircumflexdotbelow">
          -104 callgsubr
          313 1881 -94 callsubr
          -604 -1993 -102 callgsubr
        </CharString>
        <CharString name="Ocircumflexgrave">
          -104 callgsubr
          164 1821 -56 callsubr
          287 32 -10 callgsubr
          endchar
        </CharString>
        <CharString name="Ocircumflexhookabove">
          -104 callgsubr
          164 1821 -56 callsubr
          36 155 rmoveto
          6 25 25 3 27 hhcurveto
          54 35 -25 -37 -44 -45 -32 -59 -12 hvcurveto
          62 -70 rlineto
          103 28 60 63 81 vvcurveto
          84 -70 55 -112 -28 -38 -5 -7 -16 vhcurveto
          endchar
        </CharString>
        <CharString name="Ocircumflextilde">
          -104 callgsubr
          390 1856 -44 callsubr
        </CharString>
        <CharString name="Ocyrillic">
          362 933 1301 -105 callgsubr
          endchar
        </CharString>
        <CharString name="Odblgrave">
          -104 callgsubr
          -21 1583 -57 callsubr
          519 -289 -57 callsubr
          endchar
        </CharString>
        <CharString name="Odieresis">
          -104 callgsubr
          40 1641 -106 callgsubr
          endchar
        </CharString>
        <CharString name="Odieresismacron">
          -104 callgsubr
          40 1789 -39 callgsubr
        </CharString>
        <CharString name="Odotaccent">
          -104 callgsubr
          228 1634 -102 callgsubr
        </CharString>
        <CharString name="Odotaccentmacron">
          -104 callgsubr
          223 1600 27 callsubr
        </CharString>
        <CharString name="Odotbelow">
          -104 callgsubr
          -71 -410 -102 callgsubr
        </CharString>
        <CharString name="Ograve">
          -104 callgsubr
          109 1583 -57 callsubr
          endchar
        </CharString>
        <CharString name="Ohookabove">
          -104 callgsubr
          53 1786 -64 callsubr
        </CharString>
        <CharString name="Ohorn">
          -85 callsubr
          endchar
        </CharString>
        <CharString name="Ohornacute">
          -85 callsubr
          -474 723 -82 callgsubr
        </CharString>
        <CharString name="Ohorndotbelow">
          -85 callsubr
          -822 -1270 -102 callgsubr
        </CharString>
        <CharString name="Ohorngrave">
          -85 callsubr
          -642 723 -57 callsubr
          endchar
        </CharString>
        <CharString name="Ohornhookabove">
          -85 callsubr
          -698 926 -64 callsubr
        </CharString>
        <CharString name="Ohorntilde">
          -85 callsubr
          -412 709 -102 callsubr
          endchar
        </CharString>
        <CharString name="Ohungarumlaut">
          -104 callgsubr
          435 1583 9 callsubr
        </CharString>
        <CharString name="Oinvertedbreve">
          -104 callgsubr
          512 1565 -60 callsubr
        </CharString>
        <CharString name="Omacron">
          -104 callgsubr
          553 1773 -76 callgsubr
        </CharString>
        <CharString name="Omacronacute">
          -104 callgsubr
          519 99 callgsubr
          298 238 -10 callsubr
          endchar
        </CharString>
        <CharString name="Omacrongrave">
          -104 callgsubr
          519 99 callgsubr
          432 238 -10 callgsubr
          endchar
        </CharString>
        <CharString name="Omegagreek">
          349 872 hmoveto
          4 callgsubr
        </CharString>
        <CharString name="Omegatonosgreek">
          589 183 18 callsubr
          791 -1443 rmoveto
          4 callgsubr
        </CharString>
        <CharString name="Omicrongreek">
          -104 callgsubr
          endchar
        </CharString>
        <CharString name="Omicrontonosgreek">
          537 183 18 callsubr
          792 -142 -105 callgsubr
          endchar
        </CharString>
        <CharString name="Oogonek">
          -14 callsubr
          endchar
        </CharString>
        <CharString name="Oogonekmacron">
          -14 callsubr
          -13 919 -76 callgsubr
        </CharString>
        <CharString name="Oslash">
          352 1297 1069 rmoveto
          30 -67 16 -81 -90 vvcurveto
          -380 -230 -309 -336 -120 -100 41 75 -71 vhcurveto
          -78 116 rmoveto
          -30 67 -16 81 90 vvcurveto
          380 230 309 336 120 100 -41 -75 71 vhcurveto
          377 183 rmoveto
          -97 97 -153 -153 rlineto
          98 -104 -143 56 -171 hhcurveto
          -436 -315 -388 -472 -143 34 -125 61 -100 hvcurveto
          -163 -163 97 -97 153 153 rlineto
          -98 104 143 -56 171 hhcurveto
          436 315 388 472 143 -34 125 -61 100 hvcurveto
          endchar
        </CharString>
        <CharString name="Oslashacute">
          352 1375 1849 rmoveto
          -202 hlineto
          -281 -289 rlineto
          162 hlineto
          243 -491 rmoveto
          30 -67 16 -81 -90 vvcurveto
          -380 -230 -309 -336 -120 -100 41 75 -71 vhcurveto
          -78 116 rmoveto
          -30 67 -16 81 90 vvcurveto
          380 230 309 336 120 100 -41 -75 71 vhcurveto
          377 183 rmoveto
          -97 97 -153 -153 rlineto
          98 -104 -143 56 -171 hhcurveto
          -436 -315 -388 -472 -143 34 -125 61 -100 hvcurveto
          -163 -163 97 -97 153 153 rlineto
          -98 104 143 -56 171 hhcurveto
          436 315 388 472 143 -34 125 -61 100 hvcurveto
          endchar
        </CharString>
        <CharString name="Otilde">
          -104 callgsubr
          339 1569 -102 callsubr
          endchar
        </CharString>
        <CharString name="Otildeacute">
          -104 callgsubr
          186 1873 103 callsubr
          234 196 rlineto
          -178 hlineto
          -64 -505 -88 callgsubr
          endchar
        </CharString>
        <CharString name="Otildedieresis">
          -104 callgsubr
          332 1564 -88 callgsubr
          -227 535 -4 callsubr
        </CharString>
        <CharString name="Otildemacron">
          -104 callgsubr
          611 2048 114 callsubr
          -253 -368 -88 callgsubr
          endchar
        </CharString>
        <CharString name="P">
          58 387 1443 -68 callsubr
          endchar
        </CharString>
        <CharString name="Pacute">
          58 387 1443 -68 callsubr
          480 885 -82 callgsubr
        </CharString>
        <CharString name="Pdotaccent">
          58 387 1443 -68 callsubr
          431 936 -102 callgsubr
        </CharString>
        <CharString name="Pecyrillic">
          255 1216 56 callsubr
        </CharString>
        <CharString name="Phigreek">
          463 650 -58 rmoveto
          184 hlineto
          30 143 rlineto
          464 10 326 304 424 vvcurveto
          305 -188 190 -333 33 vhcurveto
          31 146 rlineto
          -15 callsubr
          -31 -146 rlineto
          -465 -10 -325 -304 -426 vvcurveto
          -303 189 -191 332 -32 vhcurveto
          35 161 rmoveto
          -237 17 -134 137 230 vvcurveto
          330 231 229 339 vhcurveto
          -15 -942 rmoveto
          200 942 rlineto
          236 -16 134 -137 -229 vvcurveto
          -335 -230 -225 -340 vhcurveto
          endchar
        </CharString>
        <CharString name="Pigreek">
          250 118 callgsubr
          -1136 95 callgsubr
          273 117 callgsubr
          769 hlineto
          -274 -1281 rlineto
          endchar
        </CharString>
        <CharString name="Psigreek">
          417 824 hmoveto
          72 339 442 22 180 186 75 351 rlinecurve
          116 545 rlineto
          -15 callsubr
          -115 -539 rlineto
          -241 -51 -143 -158 -285 hhcurveto
          200 938 rlineto
          -185 hlineto
          -200 -938 rlineto
          -211 14 -113 78 171 vvcurveto
          41 5 45 11 50 vhcurveto
          113 539 rlineto
          -15 callsubr
          -114 -545 rlineto
          -9 -47 -5 -43 -39 vvcurveto
          -255 155 -141 317 -34 vhcurveto
          -72 -339 rlineto
          endchar
        </CharString>
        <CharString name="Q">
          352 1268 -163 rmoveto
          -126 243 rlineto
          236 146 150 286 325 vvcurveto
          380 -238 249 -362 -436 -315 -388 -472 -380 238 -249 362 78 75 13 23 69 vhcurveto
          91 -176 rlineto
          -313 305 rmoveto
          -253 -162 183 287 380 230 309 336 253 162 -183 -287 -258 -106 -225 -172 -118 hvcurveto
          -95 183 rlineto
          -178 hlineto
          130 -251 rlineto
          -13 -46 -48 -7 -51 hhcurveto
          endchar
        </CharString>
        <CharString name="R">
          104 420 731 rmoveto
          117 552 rlineto
          345 hlineto
          151 94 -93 -146 -184 -148 -129 -212 hvcurveto
          -380 712 rmoveto
          -307 -1443 rlineto
          185 hlineto
          121 571 rlineto
          364 hlineto
          190 -571 rlineto
          190 hlineto
          -202 596 rlineto
          244 50 145 192 224 vvcurveto
          230 -153 151 -272 vhcurveto
          endchar
        </CharString>
        <CharString name="Racute">
          104 1219 1849 rmoveto
          -202 hlineto
          -281 -289 rlineto
          162 hlineto
          -478 -829 rmoveto
          117 552 rlineto
          345 hlineto
          151 94 -93 -146 -184 -148 -129 -212 hvcurveto
          -380 712 rmoveto
          -307 -1443 rlineto
          185 hlineto
          121 571 rlineto
          364 hlineto
          190 -571 rlineto
          190 hlineto
          -202 596 rlineto
          244 50 145 192 224 vvcurveto
          230 -153 151 -272 vhcurveto
          endchar
        </CharString>
        <CharString name="Rcaron">
          104 888 1560 rmoveto
          346 298 rlineto
          -178 hlineto
          -221 -192 rlineto
          -6 hlineto
          -141 192 rlineto
          -154 hlineto
          220 -298 rlineto
          -334 -829 rmoveto
          117 552 rlineto
          345 hlineto
          151 94 -93 -146 -184 -148 -129 -212 hvcurveto
          -380 712 rmoveto
          -307 -1443 rlineto
          185 hlineto
          121 571 rlineto
          364 hlineto
          190 -571 rlineto
          190 hlineto
          -202 596 rlineto
          244 50 145 192 224 vvcurveto
          230 -153 151 -272 vhcurveto
          endchar
        </CharString>
        <CharString name="Rcommaaccent">
          104 320 -476 rmoveto
          134 hlineto
          212 359 rlineto
          -164 hlineto
          -82 848 rmoveto
          117 552 rlineto
          345 hlineto
          151 94 -93 -146 -184 -148 -129 -212 hvcurveto
          -380 712 rmoveto
          -307 -1443 rlineto
          185 hlineto
          121 571 rlineto
          364 hlineto
          190 -571 rlineto
          190 hlineto
          -202 596 rlineto
          244 50 145 192 224 vvcurveto
          230 -153 151 -272 vhcurveto
          endchar
        </CharString>
        <CharString name="Rdblgrave">
          104 1062 1560 rmoveto
          -159 289 rlineto
          -182 hlineto
          199 -289 rlineto
          -178 0 rmoveto
          -159 289 rlineto
          -182 hlineto
          199 -289 rlineto
          -180 -829 rmoveto
          117 552 rlineto
          345 hlineto
          151 94 -93 -146 -184 -148 -129 -212 hvcurveto
          -380 712 rmoveto
          -307 -1443 rlineto
          185 hlineto
          121 571 rlineto
          364 hlineto
          190 -571 rlineto
          190 hlineto
          -202 596 rlineto
          244 50 145 192 224 vvcurveto
          230 -153 151 -272 vhcurveto
          endchar
        </CharString>
        <CharString name="Rdotaccent">
          104 849 1611 rmoveto
          68 56 56 68 68 -56 56 -68 -68 -56 -56 -68 -68 56 -56 68 hvcurveto
          -429 -880 rmoveto
          117 552 rlineto
          345 hlineto
          151 94 -93 -146 -184 -148 -129 -212 hvcurveto
          -380 712 rmoveto
          -307 -1443 rlineto
          185 hlineto
          121 571 rlineto
          364 hlineto
          190 -571 rlineto
          190 hlineto
          -202 596 rlineto
          244 50 145 192 224 vvcurveto
          230 -153 151 -272 vhcurveto
          endchar
        </CharString>
        <CharString name="Rdotbelow">
          104 534 -185 rmoveto
          -68 -56 -56 -68 -68 56 -56 68 68 56 56 68 68 -56 56 -68 hvcurveto
          -114 916 rmoveto
          117 552 rlineto
          345 hlineto
          151 94 -93 -146 -184 -148 -129 -212 hvcurveto
          -380 712 rmoveto
          -307 -1443 rlineto
          185 hlineto
          121 571 rlineto
          364 hlineto
          190 -571 rlineto
          190 hlineto
          -202 596 rlineto
          244 50 145 192 224 vvcurveto
          230 -153 151 -272 vhcurveto
          endchar
        </CharString>
        <CharString name="Rdotbelowmacron">
          104 1174 1750 rmoveto
          -634 hlineto
          -25 -116 rlineto
          634 hlineto
          -615 -1819 rmoveto
          -68 -56 -56 -68 -68 56 -56 68 68 56 56 68 68 -56 56 -68 hvcurveto
          -114 916 rmoveto
          117 552 rlineto
          345 hlineto
          151 94 -93 -146 -184 -148 -129 -212 hvcurveto
          -380 712 rmoveto
          -307 -1443 rlineto
          185 hlineto
          121 571 rlineto
          364 hlineto
          190 -571 rlineto
          190 hlineto
          -202 596 rlineto
          244 50 145 192 224 vvcurveto
          230 -153 151 -272 vhcurveto
          endchar
        </CharString>
        <CharString name="Rhogreek">
          58 387 1443 -68 callsubr
          endchar
        </CharString>
        <CharString name="Rinvertedbreve">
          104 1133 1542 rmoveto
          6 17 4 25 28 vvcurveto
          141 -118 95 -150 -204 -139 -116 -190 -41 vhcurveto
          126 hlineto
          122 27 98 76 114 hhcurveto
          97 62 -57 -93 -19 -4 -19 -4 -10 hvcurveto
          -587 -811 rmoveto
          117 552 rlineto
          345 hlineto
          151 94 -93 -146 -184 -148 -129 -212 hvcurveto
          -380 712 rmoveto
          -307 -1443 rlineto
          185 hlineto
          121 571 rlineto
          364 hlineto
          190 -571 rlineto
          190 hlineto
          -202 596 rlineto
          244 50 145 192 224 vvcurveto
          230 -153 151 -272 vhcurveto
          endchar
        </CharString>
        <CharString name="Rlinebelow">
          104 209 -367 rmoveto
          634 hlineto
          25 116 rlineto
          -634 hlineto
          186 982 rmoveto
          117 552 rlineto
          345 hlineto
          151 94 -93 -146 -184 -148 -129 -212 hvcurveto
          -380 712 rmoveto
          -307 -1443 rlineto
          185 hlineto
          121 571 rlineto
          364 hlineto
          190 -571 rlineto
          190 hlineto
          -202 596 rlineto
          244 50 145 192 224 vvcurveto
          230 -153 151 -272 vhcurveto
          endchar
        </CharString>
        <CharString name="S">
          61 100 424 rmoveto
          -101 callsubr
          endchar
        </CharString>
        <CharString name="Sacute">
          61 100 424 rmoveto
          -101 callsubr
          663 1136 -82 callgsubr
        </CharString>
        <CharString name="Sacutedotaccent">
          61 100 424 rmoveto
          -101 callsubr
          776 1136 rmoveto
          321 289 rlineto
          -202 hlineto
          -281 -289 rlineto
          -166 9 -102 callgsubr
        </CharString>
        <CharString name="Scaron">
          61 100 424 rmoveto
          -101 callsubr
          519 1136 -86 callsubr
        </CharString>
        <CharString name="Scarondotaccent">
          61 100 424 rmoveto
          -101 callsubr
          495 1116 43 callsubr
        </CharString>
        <CharString name="Scedilla">
          61 721 831 rmoveto
          -175 55 -77 69 111 vvcurveto
          121 104 116 207 201 121 -105 -150 7 vhcurveto
          180 hlineto
          259 -214 159 -293 -294 -205 -167 -247 -195 117 -115 239 -75 vhcurveto
          96 -30 rlineto
          178 -56 77 -66 -130 vvcurveto
          -158 -143 -87 -185 -219 -142 116 168 -20 vhcurveto
          -181 hlineto
          9 -250 200 -160 256 -31 -77 -142 rcurveline
          -16 -72 rlineto
          59 hlineto
          108 47 -20 -45 -44 -46 -25 -79 -48 -48 9 16 -43 hvcurveto
          -24 -114 rlineto
          -17 45 73 -12 59 hhcurveto
          148 98 79 119 95 -70 54 -119 -4 hvcurveto
          67 118 rlineto
          317 16 163 212 217 vvcurveto
          183 -122 120 -240 75 vhcurveto
          endchar
        </CharString>
        <CharString name="Scircumflex">
          61 100 424 rmoveto
          -101 callsubr
          699 1434 -93 callsubr
        </CharString>
        <CharString name="Scommaaccent">
          61 100 424 rmoveto
          -101 callsubr
          210 -900 -40 callsubr
        </CharString>
        <CharString name="Sdotaccent">
          61 100 424 rmoveto
          -101 callsubr
          614 1187 -102 callgsubr
        </CharString>
        <CharString name="Sdotbelow">
          61 100 424 rmoveto
          -101 callsubr
          290 -857 -102 callgsubr
        </CharString>
        <CharString name="Sdotbelowdotaccent">
          61 100 424 rmoveto
          -101 callsubr
          290 -857 -103 callsubr
          324 2044 -102 callgsubr
        </CharString>
        <CharString name="Shacyrillic">
          712 85 hmoveto
          1588 hlineto
          -3 callgsubr
          -273 -1281 rlineto
          -518 94 callsubr
          -273 -1281 rlineto
          -518 94 callsubr
          endchar
        </CharString>
        <CharString name="Shchacyrillic">
          777 1792 -285 rmoveto
          81 callgsubr
          -184 hlineto
          -273 -1281 rlineto
          -518 94 callsubr
          -273 -1281 rlineto
          -518 hlineto
          273 -1 callgsubr
          1601 hlineto
          -61 -285 rlineto
          endchar
        </CharString>
        <CharString name="Sigmagreek">
          96 308 166 rmoveto
          486 568 5 18 -239 525 1 4 rlineto
          797 hlineto
          34 162 rlineto
          -1019 hlineto
          -28 -134 260 -561 -541 -620 -27 -128 rlineto
          1067 hlineto
          34 162 rlineto
          -831 hlineto
          endchar
        </CharString>
        <CharString name="Softsigncyrillic">
          55 703 748 rmoveto
          183 127 -82 -175 -194 -164 -137 -213 hvcurveto
          -333 hlineto
          126 588 rlineto
          -344 -748 rmoveto
          570 hlineto
          303 243 203 299 251 -191 155 -270 hvcurveto
          -278 hlineto
          114 535 rlineto
          -15 callsubr
          endchar
        </CharString>
        <CharString name="T">
          45 638 63 callsubr
        </CharString>
        <CharString name="Taugreek">
          45 638 63 callsubr
        </CharString>
        <CharString name="Tbar">
          45 1373 1281 rmoveto
          34 162 rlineto
          -1110 hlineto
          -34 -162 rlineto
          463 hlineto
          -101 -477 rlineto
          -337 hlineto
          -34 -162 rlineto
          336 hlineto
          -136 -642 rlineto
          184 hlineto
          136 642 rlineto
          368 hlineto
          34 162 rlineto
          -367 hlineto
          101 477 rlineto
          endchar
        </CharString>
        <CharString name="Tcaron">
          45 638 -51 callgsubr
          365 1560 -86 callsubr
        </CharString>
        <CharString name="Tcedilla">
          45 297 1443 rmoveto
          -34 -162 rlineto
          463 hlineto
          -272 -1281 rlineto
          47 hlineto
          -87 -159 -16 -72 rlineto
          59 hlineto
          108 47 -20 -45 -44 -46 -25 -79 -48 -48 9 16 -43 hvcurveto
          -24 -114 rlineto
          -17 45 73 -12 59 hhcurveto
          148 98 79 119 95 -70 54 -119 -4 hvcurveto
          80 140 272 1281 rlineto
          463 hlineto
          34 162 rlineto
          endchar
        </CharString>
        <CharString name="Tcircumflexbelow">
          45 638 -51 callgsubr
          116 -165 -93 callsubr
        </CharString>
        <CharString name="Tcommaaccent">
          45 638 -51 callgsubr
          -53 -476 -40 callsubr
        </CharString>
        <CharString name="Tdotaccent">
          45 638 -51 callgsubr
          460 1611 -102 callgsubr
        </CharString>
        <CharString name="Tdotbelow">
          45 638 -51 callgsubr
          27 -433 -102 callgsubr
        </CharString>
        <CharString name="Tecyrillic">
          55 643 63 callsubr
        </CharString>
        <CharString name="Thetagreek">
          362 1145 638 rmoveto
          34 160 rlineto
          -611 hlineto
          -34 -160 rlineto
          248 -661 rmoveto
          436 320 92 callgsubr
          -243 249 -362 -436 -320 -388 -472 -380 243 -249 362 hvcurveto
          571 854 rmoveto
          -380 -235 -309 -336 -253 -167 183 287 380 235 309 336 253 167 -183 -287 vhcurveto
          endchar
        </CharString>
        <CharString name="Thorn">
          27 80 hmoveto
          180 hlineto
          74 349 rlineto
          340 hlineto
          331 222 190 282 211 -159 145 -227 hvcurveto
          -332 hlineto
          57 266 rlineto
          -179 hlineto
          89 -426 rmoveto
          304 hlineto
          171 88 -82 -130 -187 -139 -109 -237 hvcurveto
          -295 hlineto
          endchar
        </CharString>
        <CharString name="Tlinebelow">
          45 638 -51 callgsubr
          361 -251 -76 callgsubr
        </CharString>
        <CharString name="Tsecyrillic">
          361 1342 -285 41 callsubr
        </CharString>
        <CharString name="Tshecyrillic">
          512 1152 745 rmoveto
          200 88 -128 -222 -47 hvcurveto
          -84 -395 rlineto
          184 hlineto
          83 387 rlineto
          320 68 -157 200 -300 hhcurveto
          -154 -122 -68 -76 -90 hvcurveto
          -16 hlineto
          110 518 rlineto
          463 90 callsubr
          -35 -162 rlineto
          463 hlineto
          -272 -1281 rlineto
          184 hlineto
          114 535 rlineto
          118 83 154 92 158 hhcurveto
          endchar
        </CharString>
        <CharString name="U">
          -103 callgsubr
          endchar
        </CharString>
        <CharString name="Uacute">
          -103 callgsubr
          363 1583 -82 callgsubr
        </CharString>
        <CharString name="Ubreve">
          -103 callgsubr
          21 1871 -87 callsubr
          endchar
        </CharString>
        <CharString name="Ucaron">
          -103 callgsubr
          219 1583 -86 callsubr
        </CharString>
        <CharString name="Ucircumflex">
          -103 callgsubr
          399 1881 -93 callsubr
        </CharString>
        <CharString name="Ucircumflexbelow">
          -103 callgsubr
          -16 -142 -93 callsubr
        </CharString>
        <CharString name="Ucyrillic">
          -70 callsubr
          endchar
        </CharString>
        <CharString name="Udblgrave">
          -103 callgsubr
          65 1583 -57 callsubr
          519 -289 -57 callsubr
          endchar
        </CharString>
        <CharString name="Udieresis">
          -103 callgsubr
          126 1641 -106 callgsubr
          endchar
        </CharString>
        <CharString name="Udieresisacute">
          -103 callgsubr
          243 1853 -10 callsubr
          -331 -492 -47 callgsubr
        </CharString>
        <CharString name="Udieresisbelow">
          -103 callgsubr
          -288 -396 -106 callgsubr
          endchar
        </CharString>
        <CharString name="Udieresiscaron">
          -103 callgsubr
          257 1839 22 callsubr
        </CharString>
        <CharString name="Udieresisgrave">
          -103 callgsubr
          425 1853 -10 callgsubr
          -165 -276 -47 callgsubr
        </CharString>
        <CharString name="Udieresismacron">
          -103 callgsubr
          126 1789 -39 callgsubr
        </CharString>
        <CharString name="Udotbelow">
          -103 callgsubr
          -105 -410 -102 callgsubr
        </CharString>
        <CharString name="Ugrave">
          -103 callgsubr
          195 1583 -57 callsubr
          endchar
        </CharString>
        <CharString name="Uhookabove">
          -103 callgsubr
          139 1786 -64 callsubr
        </CharString>
        <CharString name="Uhorn">
          -85 callgsubr
          endchar
        </CharString>
        <CharString name="Uhornacute">
          -85 callgsubr
          378 1584 -82 callgsubr
        </CharString>
        <CharString name="Uhorndotbelow">
          -85 callgsubr
          -107 -409 -102 callgsubr
        </CharString>
        <CharString name="Uhorngrave">
          -85 callgsubr
          210 1584 -57 callsubr
          endchar
        </CharString>
        <CharString name="Uhornhookabove">
          -85 callgsubr
          154 1787 -64 callsubr
        </CharString>
        <CharString name="Uhorntilde">
          -85 callgsubr
          440 1570 -102 callsubr
          endchar
        </CharString>
        <CharString name="Uhungarumlaut">
          -103 callgsubr
          521 1583 9 callsubr
        </CharString>
        <CharString name="Uinvertedbreve">
          -103 callgsubr
          598 1565 -60 callsubr
        </CharString>
        <CharString name="Umacron">
          -103 callgsubr
          639 1773 -76 callgsubr
        </CharString>
        <CharString name="Umacrondieresis">
          -103 callgsubr
          605 99 callgsubr
          208 242 -47 callgsubr
        </CharString>
        <CharString name="Uogonek">
          264 876 -406 rmoveto
          50 callgsubr
          47 69 91 103 174 88 hvcurveto
          172 87 115 139 44 207 208 977 62 callgsubr
          -201 -942 rlineto
          -225 -48 -167 -134 -214 hhcurveto
          -230 -112 114 177 -7 hvcurveto
          -1 41 4 45 10 47 184 877 62 callgsubr
          -186 -889 -9 -44 -5 -44 1 -42 rlinecurve
          -250 2 174 -198 327 hhcurveto
          30 36 2 2 11 hvcurveto
          -3 vlineto
          -134 -82 -57 -82 107 callgsubr
          endchar
        </CharString>
        <CharString name="Upsilondieresisgreek">
          90 662 hmoveto
          -83 callsubr
          267 1618 -106 callgsubr
          endchar
        </CharString>
        <CharString name="Upsilongreek">
          90 662 hmoveto
          -83 callsubr
          endchar
        </CharString>
        <CharString name="Upsilontonosgreek">
          521 285 18 callsubr
          670 -1443 54 callsubr
        </CharString>
        <CharString name="Uring">
          -103 callgsubr
          311 1578 -89 callgsubr
        </CharString>
        <CharString name="Ushortcyrillic">
          -70 callsubr
          364 1850 -78 callsubr
        </CharString>
        <CharString name="Utilde">
          -103 callgsubr
          425 1569 -102 callsubr
          endchar
        </CharString>
        <CharString name="Utildeacute">
          -103 callgsubr
          272 1873 103 callsubr
          234 196 rlineto
          -178 hlineto
          -64 -505 -88 callgsubr
          endchar
        </CharString>
        <CharString name="Utildebelow">
          -103 callgsubr
          18 -419 -102 callsubr
          endchar
        </CharString>
        <CharString name="V">
          21 callsubr
          endchar
        </CharString>
        <CharString name="Vdotbelow">
          21 callsubr
          27 -433 -102 callgsubr
        </CharString>
        <CharString name="Vecyrillic">
          144 685 -84 callgsubr
          endchar
        </CharString>
        <CharString name="Vtilde">
          21 callsubr
          563 1546 -102 callsubr
          endchar
        </CharString>
        <CharString name="W">
          730 1125 -72 callgsubr
          endchar
        </CharString>
        <CharString name="Wacute">
          730 1125 -72 callgsubr
          731 1560 -82 callgsubr
        </CharString>
        <CharString name="Wcircumflex">
          730 1125 -72 callgsubr
          767 1858 -93 callsubr
        </CharString>
        <CharString name="Wdieresis">
          730 1125 -72 callgsubr
          494 1618 -106 callgsubr
          endchar
        </CharString>
        <CharString name="Wdotaccent">
          730 1125 -72 callgsubr
          682 1611 -102 callgsubr
        </CharString>
        <CharString name="Wdotbelow">
          730 1125 -72 callgsubr
          261 -433 -102 callgsubr
        </CharString>
        <CharString name="Wgrave">
          730 1125 -72 callgsubr
          563 1560 -57 callsubr
          endchar
        </CharString>
        <CharString name="X">
          138 -20 40 callgsubr
        </CharString>
        <CharString name="Xacyrillic">
          148 -15 40 callgsubr
        </CharString>
        <CharString name="Xdieresis">
          138 -20 hmoveto
          -53 callgsubr
          132 884 -106 callgsubr
          endchar
        </CharString>
        <CharString name="Xdotaccent">
          138 -20 hmoveto
          -53 callgsubr
          320 877 -102 callgsubr
        </CharString>
        <CharString name="Xigreek">
          91 346 93 callgsubr
          -35 -167 rlineto
          1059 hlineto
          35 167 rlineto
          -255 -790 rmoveto
          36 165 rlineto
          -885 hlineto
          -36 -165 rlineto
          -190 -486 rmoveto
          -35 -167 rlineto
          1059 hlineto
          35 167 rlineto
          endchar
        </CharString>
        <CharString name="Y">
          90 662 hmoveto
          -83 callsubr
          endchar
        </CharString>
        <CharString name="Yacute">
          90 662 hmoveto
          -83 callsubr
          504 1560 -82 callgsubr
        </CharString>
        <CharString name="Ycircumflex">
          90 662 hmoveto
          -83 callsubr
          540 1858 -93 callsubr
        </CharString>
        <CharString name="Ydieresis">
          90 662 hmoveto
          -83 callsubr
          267 1618 -106 callgsubr
          endchar
        </CharString>
        <CharString name="Ydotaccent">
          90 662 hmoveto
          -83 callsubr
          455 1611 -102 callgsubr
        </CharString>
        <CharString name="Ydotbelow">
          90 662 hmoveto
          -83 callsubr
          21 -433 -102 callgsubr
        </CharString>
        <CharString name="Yericyrillic">
          -65 callgsubr
          endchar
        </CharString>
        <CharString name="Ygrave">
          90 662 hmoveto
          -83 callsubr
          336 1560 -57 callsubr
          endchar
        </CharString>
        <CharString name="Yhookabove">
          90 662 hmoveto
          -83 callsubr
          280 1763 -64 callsubr
        </CharString>
        <CharString name="Yicyrillic">
          -692 269 hmoveto
          -3 callgsubr
          -307 -1443 rlineto
          270 1618 -106 callgsubr
          endchar
        </CharString>
        <CharString name="Yicyrillic.1">
          -242 950 1618 rmoveto
          60 50 49 61 61 -50 49 -60 -60 -50 -49 -61 -61 50 -49 60 hvcurveto
          -372 0 rmoveto
          60 50 49 61 61 -50 49 -60 -60 -50 -49 -61 -61 50 -49 60 hvcurveto
          464 -329 rmoveto
          33 154 rlineto
          -274 hlineto
          -184 hlineto
          -274 hlineto
          -33 -154 rlineto
          274 hlineto
          -241 -1135 rlineto
          -274 hlineto
          -33 -154 rlineto
          274 hlineto
          184 hlineto
          274 hlineto
          33 154 rlineto
          -274 hlineto
          241 1135 rlineto
          endchar
        </CharString>
        <CharString name="Ymacron">
          90 662 hmoveto
          -83 callsubr
          780 1750 -76 callgsubr
        </CharString>
        <CharString name="Ytilde">
          90 662 hmoveto
          -83 callsubr
          566 1546 -102 callsubr
          endchar
        </CharString>
        <CharString name="Z">
          97 38 hmoveto
          -63 callgsubr
          endchar
        </CharString>
        <CharString name="Zacute">
          97 38 hmoveto
          -63 callgsubr
          914 1432 -82 callgsubr
        </CharString>
        <CharString name="Zcaron">
          97 38 hmoveto
          -63 callgsubr
          770 1432 -86 callsubr
        </CharString>
        <CharString name="Zcircumflex">
          97 38 hmoveto
          -63 callgsubr
          950 1730 -93 callsubr
        </CharString>
        <CharString name="Zdotaccent">
          97 38 hmoveto
          -63 callgsubr
          865 1483 -102 callgsubr
        </CharString>
        <CharString name="Zdotbelow">
          97 38 hmoveto
          -63 callgsubr
          486 -561 -102 callgsubr
        </CharString>
        <CharString name="Zecyrillic">
          15 445 662 -78 callgsubr
          endchar
        </CharString>
        <CharString name="Zetagreek">
          97 38 hmoveto
          -63 callgsubr
          endchar
        </CharString>
        <CharString name="Zhecyrillic">
          830 1004 -45 callsubr
          endchar
        </CharString>
        <CharString name="Zlinebelow">
          97 38 hmoveto
          -63 callgsubr
          820 -379 -76 callgsubr
        </CharString>
        <CharString name="a">
          -107 callgsubr
          endchar
        </CharString>
        <CharString name="a.1">
          -27 543 -106 callsubr
          endchar
        </CharString>
        <CharString name="aacute">
          -107 callgsubr
          359 1226 -77 callsubr
          endchar
        </CharString>
        <CharString name="aacute.1">
          -27 543 -106 callsubr
          27 1208 -77 callsubr
          endchar
        </CharString>
        <CharString name="abreve">
          -107 callgsubr
          26 1526 -67 callsubr
        </CharString>
        <CharString name="abreve.1">
          -27 543 -106 callsubr
          -306 6 callsubr
        </CharString>
        <CharString name="abreveacute">
          -107 callgsubr
          267 1548 -15 callgsubr
          132 -318 -82 callsubr
          endchar
        </CharString>
        <CharString name="abreveacute.1">
          -27 543 -106 callsubr
          -65 1530 -15 callgsubr
          132 -318 -82 callsubr
          endchar
        </CharString>
        <CharString name="abrevedotbelow">
          -107 callgsubr
          26 1526 -73 callgsubr
          -137 -1941 -102 callgsubr
        </CharString>
        <CharString name="abrevedotbelow.1">
          -27 543 -106 callsubr
          -306 1508 -73 callgsubr
          -166 -1941 -102 callgsubr
        </CharString>
        <CharString name="abrevegrave">
          -107 callgsubr
          435 1548 -24 callsubr
          366 -22 -82 callsubr
          endchar
        </CharString>
        <CharString name="abrevegrave.1">
          -27 543 -106 callsubr
          103 94 callgsubr
          366 -22 -82 callsubr
          endchar
        </CharString>
        <CharString name="abrevehookabove">
          -107 callgsubr
          225 1728 rmoveto
          13 36 32 6 35 hhcurveto
          42 30 -23 -33 -41 -52 -54 -59 -20 hvcurveto
          55 -73 rlineto
          99 30 80 96 90 vvcurveto
          79 -60 47 -101 -39 -50 -11 -13 -26 vhcurveto
          424 -295 -82 callsubr
          endchar
        </CharString>
        <CharString name="abrevehookabove.1">
          -27 543 -106 callsubr
          -107 1710 rmoveto
          13 36 32 6 35 hhcurveto
          42 30 -23 -33 -41 -52 -54 -59 -20 hvcurveto
          55 -73 rlineto
          99 30 80 96 90 vvcurveto
          79 -60 47 -101 -39 -50 -11 -13 -26 vhcurveto
          424 -295 -82 callsubr
          endchar
        </CharString>
        <CharString name="abrevetilde">
          -107 callgsubr
          671 1526 -82 callsubr
          -154 71 -88 callgsubr
          endchar
        </CharString>
        <CharString name="abrevetilde.1">
          -27 543 -106 callsubr
          339 1508 -82 callsubr
          -154 71 -88 callgsubr
          endchar
        </CharString>
        <CharString name="acaron">
          -107 callgsubr
          364 1226 -80 callsubr
        </CharString>
        <CharString name="acaron.1">
          -27 543 -106 callsubr
          32 1208 -80 callsubr
        </CharString>
        <CharString name="acircumflex">
          -107 callgsubr
          419 1526 -60 callgsubr
        </CharString>
        <CharString name="acircumflex.1">
          -27 543 -106 callsubr
          87 9 callgsubr
        </CharString>
        <CharString name="acircumflexacute">
          -107 callgsubr
          402 1506 10 callsubr
        </CharString>
        <CharString name="acircumflexacute.1">
          -27 543 -106 callsubr
          70 1488 10 callsubr
        </CharString>
        <CharString name="acircumflexdotbelow">
          -107 callgsubr
          419 1526 -75 callgsubr
          -612 -1641 -102 callgsubr
        </CharString>
        <CharString name="acircumflexdotbelow.1">
          -27 543 -106 callsubr
          87 1508 -75 callgsubr
          -641 -1641 -102 callgsubr
        </CharString>
        <CharString name="acircumflexgrave">
          -107 callgsubr
          663 1548 -24 callsubr
          -131 -42 -79 callsubr
          endchar
        </CharString>
        <CharString name="acircumflexgrave.1">
          -27 543 -106 callsubr
          331 94 callgsubr
          -131 -42 -79 callsubr
          endchar
        </CharString>
        <CharString name="acircumflexhookabove">
          -107 callgsubr
          412 1725 -48 callsubr
        </CharString>
        <CharString name="acircumflexhookabove.1">
          -27 543 -106 callsubr
          80 1707 -48 callsubr
        </CharString>
        <CharString name="acircumflextilde">
          -107 callgsubr
          402 1506 -28 callsubr
        </CharString>
        <CharString name="acircumflextilde.1">
          -27 543 -106 callsubr
          70 1488 -28 callsubr
        </CharString>
        <CharString name="acute">
          -72 700 1208 -77 callsubr
          endchar
        </CharString>
        <CharString name="acutecmb">
          269 1208 -77 callsubr
          endchar
        </CharString>
        <CharString name="acutecmb.short">
          354 1560 -82 callgsubr
        </CharString>
        <CharString name="acutedotaccentcmb">
          383 1208 -77 callsubr
          -188 -19 -102 callgsubr
        </CharString>
        <CharString name="acutedotaccentcmb.short">
          467 1560 rmoveto
          321 289 rlineto
          -202 hlineto
          -281 -289 rlineto
          -166 9 -102 callgsubr
        </CharString>
        <CharString name="acyrillic">
          -107 callgsubr
          endchar
        </CharString>
        <CharString name="acyrillic.1">
          -18 547 -106 callsubr
          endchar
        </CharString>
        <CharString name="adblgrave">
          -107 callgsubr
          197 1226 -43 callgsubr
        </CharString>
        <CharString name="adblgrave.1">
          -27 543 -106 callsubr
          -135 1208 -43 callgsubr
        </CharString>
        <CharString name="adieresis">
          -107 callgsubr
          121 1233 -106 callgsubr
          endchar
        </CharString>
        <CharString name="adieresis.1">
          -27 543 -106 callsubr
          -211 1215 -106 callgsubr
          endchar
        </CharString>
        <CharString name="adieresismacron">
          -107 callgsubr
          123 1223 -37 callgsubr
        </CharString>
        <CharString name="adieresismacron.1">
          -27 543 -106 callsubr
          -209 33 callgsubr
        </CharString>
        <CharString name="adotaccent">
          -107 callgsubr
          309 1226 -102 callgsubr
        </CharString>
        <CharString name="adotaccent.1">
          -27 543 -106 callsubr
          -23 1208 -102 callgsubr
        </CharString>
        <CharString name="adotbelow">
          -107 callgsubr
          15 -415 -102 callgsubr
        </CharString>
        <CharString name="adotbelow.1">
          -27 543 -106 callsubr
          -346 -433 -102 callgsubr
        </CharString>
        <CharString name="adotmacron">
          -107 callgsubr
          309 1213 5 callsubr
        </CharString>
        <CharString name="adotmacron.1">
          -27 543 -106 callsubr
          -23 1195 5 callsubr
        </CharString>
        <CharString name="ae">
          569 1218 -88 callsubr
          endchar
        </CharString>
        <CharString name="aeacute">
          569 1218 -88 callsubr
          664 1078 -77 callsubr
          endchar
        </CharString>
        <CharString name="aemacron">
          569 1218 -88 callsubr
          919 1268 -74 callsubr
        </CharString>
        <CharString name="agrave">
          -107 callgsubr
          367 1226 -35 callgsubr
        </CharString>
        <CharString name="agrave.1">
          -27 543 -106 callsubr
          35 1208 -35 callgsubr
        </CharString>
        <CharString name="ahookabove">
          -107 callgsubr
          171 1446 -62 callsubr
        </CharString>
        <CharString name="ahookabove.1">
          -27 543 -106 callsubr
          -161 1428 -62 callsubr
        </CharString>
        <CharString name="ainvertedbreve">
          -107 callgsubr
          604 1216 -59 callgsubr
        </CharString>
        <CharString name="ainvertedbreve.1">
          -27 543 -106 callsubr
          272 1198 -59 callgsubr
        </CharString>
        <CharString name="alphagreek">
          -13 callgsubr
          endchar
        </CharString>
        <CharString name="alphatonosgreek">
          -13 callgsubr
          98 1057 -28 callgsubr
          endchar
        </CharString>
        <CharString name="amacron">
          -107 callgsubr
          614 1416 -74 callsubr
        </CharString>
        <CharString name="amacron.1">
          -27 543 -106 callsubr
          282 1398 -74 callsubr
        </CharString>
        <CharString name="ampersand">
          205 562 1116 rmoveto
          120 100 97 121 107 77 -61 -98 -105 -86 -119 -215 -65 vhcurveto
          -73 100 -31 67 64 vvcurveto
          3 -992 rmoveto
          -196 -120 114 150 127 96 109 182 67 hvcurveto
          57 21 322 -487 rlineto
          -74 -101 -133 -27 -107 hhcurveto
          487 -124 rmoveto
          213 hlineto
          -139 208 115 122 80 161 17 210 rlinecurve
          5 61 rlineto
          -168 hlineto
          -4 -54 -12 -159 -49 -118 -76 -86 rlinecurve
          -291 427 rlineto
          277 93 118 159 164 vvcurveto
          166 -147 123 -201 -228 -172 -161 -195 -83 35 -86 81 -119 vhcurveto
          -62 -24 rlineto
          -252 -98 -123 -147 -188 vvcurveto
          -228 218 -175 270 166 154 45 78 113 vhcurveto
          endchar
        </CharString>
        <CharString name="anoteleia">
          -644 311 406 -29 callsubr
          endchar
        </CharString>
        <CharString name="aogonek">
          -148 444 139 rmoveto
          -117 -77 59 91 103 90 66 152 8 hvcurveto
          288 15 53 callsubr
          -136 -29 -124 -90 -157 hhcurveto
          311 -530 91 callsubr
          -21 -25 -4 -27 102 callsubr
          69 92 81 138 51 hvcurveto
          8 3 145 681 rlineto
          5 22 2 28 38 vvcurveto
          171 -152 117 -223 -230 -173 -124 -188 -31 vhcurveto
          182 hlineto
          100 21 88 59 129 hhcurveto
          134 80 -60 -100 -26 -1 -12 -3 -13 hvcurveto
          -14 -65 -307 -16 rlineto
          -276 -14 -152 -119 -200 vvcurveto
          -159 140 -121 184 133 107 47 89 71 vhcurveto
          3 hlineto
          -24 -113 rlineto
          -157 -86 -75 -89 -101 19 callgsubr
          endchar
        </CharString>
        <CharString name="aogonek.1">
          -27 543 135 rmoveto
          -158 -96 120 187 264 145 198 203 162 107 -121 -171 -273 -151 -204 -212 hvcurveto
          327 -526 91 callsubr
          -22 -25 -4 -26 102 callsubr
          64 83 82 147 55 hvcurveto
          8 3 223 1048 rlineto
          -168 hlineto
          -46 -222 rlineto
          -6 hlineto
          142 -38 -128 98 -168 hhcurveto
          -296 -223 -271 -349 -274 151 -182 238 132 132 82 109 65 hvcurveto
          4 hlineto
          -35 -160 rlineto
          -158 -86 -73 -89 -100 19 callgsubr
          endchar
        </CharString>
        <CharString name="approxequal">
          73 916 649 -25 callgsubr
          -114 -438 -25 callgsubr
          endchar
        </CharString>
        <CharString name="approxequal.uc">
          73 941 768 -25 callgsubr
          -114 -438 -25 callgsubr
          endchar
        </CharString>
        <CharString name="aring">
          -107 callgsubr
          306 1170 -89 callgsubr
        </CharString>
        <CharString name="aring.1">
          -27 543 -106 callsubr
          -26 1152 -89 callgsubr
        </CharString>
        <CharString name="aringacute">
          -107 callgsubr
          306 1648 -21 callgsubr
        </CharString>
        <CharString name="aringacute.1">
          -27 543 -106 callsubr
          -26 1630 -21 callgsubr
        </CharString>
        <CharString name="aringbelow">
          -107 callgsubr
          9 -482 -89 callgsubr
        </CharString>
        <CharString name="aringbelow.1">
          -27 543 -106 callsubr
          -352 -500 -89 callgsubr
        </CharString>
        <CharString name="asciicircum">
          -266 656 1291 rmoveto
          16 hlineto
          117 -475 rlineto
          167 hlineto
          -165 627 88 callsubr
          -431 -627 rlineto
          167 hlineto
          endchar
        </CharString>
        <CharString name="asciitilde">
          74 867 407 rmoveto
          151 136 115 214 25 82 callsubr
          -115 -21 -45 -52 -72 -111 -50 228 -200 hhcurveto
          -151 -136 -115 -214 -25 hvcurveto
          171 hlineto
          115 21 43 52 72 111 50 -228 202 hhcurveto
          endchar
        </CharString>
        <CharString name="asterisk">
          -176 935 854 rmoveto
          75 101 -236 161 287 106 -46 122 -267 -126 60 284 -128 13 -42 -299 -224 185 -75 -103 227 -156 -279 -105 46 -120 273 126 -60 -287 128 -13 40 289 rlineto
          endchar
        </CharString>
        <CharString name="asterisk.uc">
          73 1087 311 rmoveto
          90 117 -364 248 442 161 -51 142 -413 -183 89 431 -149 16 -63 -451 -345 271 -90 -116 360 -245 -430 -154 52 -146 416 190 -90 -435 148 -16 63 432 rlineto
          endchar
        </CharString>
        <CharString name="at">
          628 1046 1438 -32 callgsubr
        </CharString>
        <CharString name="at.uc">
          628 1072 1562 -32 callgsubr
        </CharString>
        <CharString name="atilde">
          -107 callgsubr
          427 1234 -102 callsubr
          endchar
        </CharString>
        <CharString name="atilde.1">
          -27 543 -106 callsubr
          95 1216 -102 callsubr
          endchar
        </CharString>
        <CharString name="austral">
          73 980 hmoveto
          179 hlineto
          -57 403 rlineto
          103 61 callsubr
          -151 hlineto
          -26 173 rlineto
          213 61 callsubr
          -261 hlineto
          -84 595 rlineto
          -174 hlineto
          -338 -595 rlineto
          -261 69 callsubr
          213 hlineto
          -98 -173 rlineto
          -151 69 callsubr
          103 hlineto
          -229 -403 rlineto
          195 hlineto
          221 403 rlineto
          554 hlineto
          -114 806 rmoveto
          16 hlineto
          44 -361 rlineto
          -258 hlineto
          296 -309 rmoveto
          -464 hlineto
          94 173 rlineto
          348 hlineto
          endchar
        </CharString>
        <CharString name="b">
          -54 callsubr
          endchar
        </CharString>
        <CharString name="backslash">
          -506 345 -308 106 callgsubr
        </CharString>
        <CharString name="backslash.uc">
          -506 378 -152 106 callgsubr
        </CharString>
        <CharString name="baht">
          73 703 665 rmoveto
          164 -9 79 -74 -139 vvcurveto
          -161 -149 -122 -201 -1 vhcurveto
          -309 0 rmoveto
          108 507 rlineto
          175 hlineto
          -108 -507 rlineto
          64 1125 rmoveto
          175 hlineto
          -98 -463 rlineto
          -175 hlineto
          406 458 rmoveto
          125 -19 58 -62 -110 vvcurveto
          -140 -103 -102 -177 -21 vhcurveto
          155 -68 rmoveto
          189 41 123 145 182 vvcurveto
          179 -129 120 -207 17 vhcurveto
          34 159 rlineto
          -134 hlineto
          -33 -157 rlineto
          -358 hlineto
          -307 -1443 rlineto
          358 hlineto
          -30 -142 rlineto
          134 hlineto
          30 142 rlineto
          38 hlineto
          315 222 191 267 149 -104 105 -145 29 hvcurveto
          endchar
        </CharString>
        <CharString name="bar">
          -506 277 -308 90 callgsubr
        </CharString>
        <CharString name="bar.uc">
          -506 310 -152 90 callgsubr
        </CharString>
        <CharString name="bdotaccent">
          -54 callsubr
          -102 1475 -102 callgsubr
        </CharString>
        <CharString name="bdotbelow">
          -54 callsubr
          -145 -569 -102 callgsubr
        </CharString>
        <CharString name="becyrillic">
          -55 699 1031 rmoveto
          -144 -107 -57 -126 -94 hvcurveto
          -16 hlineto
          89 271 118 108 217 10 rrcurveto
          23 102 4 1 2 hvcurveto
          136 6 98 19 50 30 32 163 rcurveline
          -53 -27 -133 -27 -104 -4 rrcurveto
          -2 -105 -5 -18 hhcurveto
          -336 -17 -177 -161 -110 -389 rrcurveto
          -30 -107 -16 -111 -103 vvcurveto
          -323 171 -204 268 320 212 250 363 255 -160 181 -233 vhcurveto
          -127 -895 rmoveto
          -166 -110 128 179 257 144 176 213 163 92 -119 -200 -230 -150 -191 -186 hvcurveto
          endchar
        </CharString>
        <CharString name="betagreek">
          -37 266 1040 rmoveto
          -295 -1388 rlineto
          172 hlineto
          120 565 rlineto
          5 hlineto
          -139 38 146 -96 168 hhcurveto
          333 163 236 232 161 -69 120 -181 50 hvcurveto
          2 vlineto
          175 62 78 133 160 vvcurveto
          194 -155 129 -230 -260 -149 -142 -279 -59 vhcurveto
          268 -344 rmoveto
          118 hlineto
          188 105 -97 -163 -174 -152 -126 -163 -180 -139 106 165 17 6 44 11 50 hvcurveto
          107 504 rlineto
          200 42 115 86 128 hhcurveto
          152 80 -83 -114 -153 -112 -108 -173 hvcurveto
          -100 hlineto
          endchar
        </CharString>
        <CharString name="bitcoin">
          73 328 182 rmoveto
          104 486 rlineto
          264 hlineto
          179 86 -72 -142 -155 -144 -117 -194 hvcurveto
          -65 1080 rmoveto
          214 hlineto
          176 81 -62 -127 -151 -126 -105 -211 hvcurveto
          -228 hlineto
          445 -61 rmoveto
          182 39 118 139 175 vvcurveto
          154 -99 108 -164 33 vhcurveto
          42 196 rlineto
          -124 hlineto
          -40 -186 rlineto
          -140 hlineto
          40 186 rlineto
          -124 hlineto
          -40 -186 rlineto
          -145 hlineto
          -295 -1385 rlineto
          145 hlineto
          -39 -185 rlineto
          124 hlineto
          40 185 rlineto
          139 hlineto
          -39 -185 rlineto
          124 hlineto
          40 185 rlineto
          289 10 201 180 250 vvcurveto
          143 -100 100 -139 28 vhcurveto
          endchar
        </CharString>
        <CharString name="blinebelow">
          -54 callsubr
          189 -387 -76 callgsubr
        </CharString>
        <CharString name="braceleft">
          -506 238 260 -12 callsubr
        </CharString>
        <CharString name="braceleft.uc">
          -506 270 414 -12 callsubr
        </CharString>
        <CharString name="braceright">
          -506 544 874 -11 callgsubr
        </CharString>
        <CharString name="braceright.uc">
          -506 577 1028 -11 callgsubr
        </CharString>
        <CharString name="bracketleft">
          -506 449 93 callgsubr
          -374 -1751 rlineto
          438 hlineto
          29 135 rlineto
          -270 hlineto
          316 1480 rlineto
          270 61 callsubr
          endchar
        </CharString>
        <CharString name="bracketleft.uc">
          -506 482 1597 rmoveto
          -374 -1751 rlineto
          438 hlineto
          29 135 rlineto
          -270 hlineto
          316 1480 rlineto
          270 61 callsubr
          endchar
        </CharString>
        <CharString name="bracketright">
          -506 333 -308 63 callgsubr
        </CharString>
        <CharString name="bracketright.uc">
          -506 366 -154 63 callgsubr
        </CharString>
        <CharString name="breve">
          -72 487 6 callsubr
        </CharString>
        <CharString name="breveacutecmb">
          177 1530 -15 callgsubr
          132 -318 -82 callsubr
          endchar
        </CharString>
        <CharString name="breveacutecmb.short">
          228 1830 -10 callsubr
          -170 -503 -41 callsubr
        </CharString>
        <CharString name="brevebelowcmb">
          -414 -156 -87 callsubr
          endchar
        </CharString>
        <CharString name="brevecmb">
          -64 6 callsubr
        </CharString>
        <CharString name="brevecmb.short">
          12 1848 -87 callsubr
          endchar
        </CharString>
        <CharString name="brevecyrillic">
          -160 425 1526 -86 callgsubr
        </CharString>
        <CharString name="brevecyrillic.short">
          -20 1840 -78 callsubr
        </CharString>
        <CharString name="brevegravecmb">
          345 94 callgsubr
          366 -22 -82 callsubr
          endchar
        </CharString>
        <CharString name="brevegravecmb.short">
          405 1830 31 callgsubr
        </CharString>
        <CharString name="brevehookabovecmb">
          135 1710 rmoveto
          13 36 32 6 35 hhcurveto
          42 30 -23 -33 -41 -52 -54 -59 -20 hvcurveto
          55 -73 rlineto
          99 30 80 96 90 vvcurveto
          79 -60 47 -101 -39 -50 -11 -13 -26 vhcurveto
          424 -295 -82 callsubr
          endchar
        </CharString>
        <CharString name="brevehookabovecmb.short">
          161 2015 rmoveto
          6 28 27 3 32 hhcurveto
          63 35 -25 -42 -49 -49 -37 -69 -12 hvcurveto
          72 -77 rlineto
          109 30 65 72 87 vvcurveto
          93 -78 61 -120 -28 -43 -5 -7 -19 vhcurveto
          86 -570 -41 callsubr
        </CharString>
        <CharString name="brevetildecmb">
          581 1508 -82 callsubr
          -154 71 -88 callgsubr
          endchar
        </CharString>
        <CharString name="brevetildecmb.short">
          475 1833 rmoveto
          109 90 79 140 22 hvcurveto
          -116 hlineto
          -75 -14 -34 -34 -44 -84 -30 125 -130 hhcurveto
          -114 -86 -74 -144 -23 hvcurveto
          116 hlineto
          72 9 38 36 46 82 31 -125 132 hhcurveto
          -203 -290 -41 callsubr
        </CharString>
        <CharString name="brokenbar">
          -506 509 783 59 callgsubr
        </CharString>
        <CharString name="brokenbar.uc">
          -506 543 939 59 callgsubr
        </CharString>
        <CharString name="bullet">
          -176 554 255 25 callsubr
        </CharString>
        <CharString name="bullet.uc">
          -176 589 418 25 callsubr
        </CharString>
        <CharString name="c">
          -135 647 1058 -91 callgsubr
          endchar
        </CharString>
        <CharString name="cacute">
          -135 647 1058 -91 callgsubr
          119 150 -77 callsubr
          endchar
        </CharString>
        <CharString name="caron">
          -72 809 1208 -80 callsubr
        </CharString>
        <CharString name="caroncmb">
          274 1208 -80 callsubr
        </CharString>
        <CharString name="caroncmb.short">
          210 1560 -86 callsubr
        </CharString>
        <CharString name="carondotaccentcmb">
          141 1208 18 callgsubr
          371 82 rmoveto
          66 56 54 68 66 -56 56 -66 -66 -56 -56 -66 -68 56 -54 66 hvcurveto
          endchar
        </CharString>
        <CharString name="carondotaccentcmb.short">
          186 1540 43 callsubr
        </CharString>
        <CharString name="caronslovak">
          -160 665 38 callgsubr
          endchar
        </CharString>
        <CharString name="ccaron">
          -135 647 1058 -91 callgsubr
          124 150 -80 callsubr
        </CharString>
        <CharString name="ccedilla">
          -135 1061 689 rmoveto
          5 0 -2 4 vvcurveto
          186 -139 176 -275 -313 -220 -272 -349 -240 121 -179 232 -31 vhcurveto
          -80 -146 -16 -72 rlineto
          59 hlineto
          108 47 -20 -45 -44 -46 -25 -79 -48 -48 9 16 -43 hvcurveto
          -24 -114 rlineto
          -17 45 73 -12 59 hhcurveto
          148 98 79 119 95 -70 54 -119 -4 hvcurveto
          72 126 192 25 156 141 45 178 rlinecurve
          -171 hlineto
          -118 -44 -101 -77 -136 hhcurveto
          -152 -100 116 192 271 146 191 207 154 88 -99 -117 5 hvcurveto
          endchar
        </CharString>
        <CharString name="ccedillaacute">
          -135 1076 1508 rmoveto
          -196 hlineto
          -274 -300 rlineto
          160 hlineto
          -379 -1367 rmoveto
          -16 -72 rlineto
          59 hlineto
          108 47 -20 -45 -44 -46 -25 -79 -48 -48 9 16 -43 hvcurveto
          -24 -114 rlineto
          -17 45 73 -12 59 hhcurveto
          148 98 79 119 95 -70 54 -119 -4 hvcurveto
          72 126 192 25 156 141 45 178 rlinecurve
          -171 hlineto
          -118 -44 -101 -77 -136 hhcurveto
          -152 -100 116 192 271 146 191 207 154 88 -99 -117 5 hvcurveto
          169 hlineto
          5 0 -2 4 vvcurveto
          186 -139 176 -275 -313 -220 -272 -349 -240 121 -179 232 -31 vhcurveto
          endchar
        </CharString>
        <CharString name="ccircumflex">
          -135 647 1058 -91 callgsubr
          179 450 -60 callgsubr
        </CharString>
        <CharString name="cdotaccent">
          -135 647 1058 -91 callgsubr
          69 150 -102 callgsubr
        </CharString>
        <CharString name="cedi">
          73 291 581 rmoveto
          398 232 330 266 vhcurveto
          5 3 0 5 hhcurveto
          -246 -1166 rlineto
          -172 48 -93 163 227 vvcurveto
          952 -205 rmoveto
          -190 hlineto
          -140 -49 -128 -107 -178 hhcurveto
          -4 -5 0 1 -3 hvcurveto
          248 1169 152 -33 89 -112 12 -160 rlinecurve
          -2 183 6 vlineto
          219 -163 196 -238 51 vhcurveto
          29 136 rlineto
          -134 hlineto
          -26 -123 rlineto
          -7 -4 0 -6 hhcurveto
          -391 -326 -382 -529 -305 160 -229 255 -57 hvcurveto
          -25 -117 rlineto
          134 hlineto
          22 103 rlineto
          2 4 0 4 hhcurveto
          290 226 170 245 67 hvcurveto
          endchar
        </CharString>
        <CharString name="cedilla">
          -72 297 -231 -91 callsubr
        </CharString>
        <CharString name="cedillacmb">
          -228 -231 -91 callsubr
        </CharString>
        <CharString name="cent">
          73 1143 504 rmoveto
          -179 hlineto
          -108 -41 -100 -62 -133 hhcurveto
          -166 -104 126 201 273 160 208 214 137 107 -82 -112 11 hvcurveto
          -5 callsubr
          -1 16 -2 16 -2 15 -25 136 -104 105 -144 42 35 165 rcurveline
          -172 hlineto
          -30 -147 rlineto
          -314 -16 -227 -275 -367 vvcurveto
          -227 118 -165 187 -52 vhcurveto
          -41 -194 rlineto
          172 hlineto
          38 178 219 13 169 127 42 186 rlinecurve
          endchar
        </CharString>
        <CharString name="checyrillic">
          -134 855 -43 callsubr
          endchar
        </CharString>
        <CharString name="chigreek">
          -76 855 -350 rmoveto
          50 18 4 6 26 hvcurveto
          31 145 rlineto
          -3 -18 -23 -1 -9 hhcurveto
          -75 -35 31 82 -24 hvcurveto
          -125 422 530 704 rlineto
          -185 hlineto
          -380 -523 rlineto
          -16 hlineto
          -109 363 rlineto
          121 -36 -64 41 -114 hhcurveto
          -39 -17 -2 -8 -32 hvcurveto
          -31 -145 rlineto
          3 16 24 1 12 hhcurveto
          79 26 -25 -85 26 hvcurveto
          127 -419 -539 -710 rlineto
          186 hlineto
          388 529 rlineto
          16 hlineto
          111 -379 rlineto
          -110 32 56 -42 117 hhcurveto
          endchar
        </CharString>
        <CharString name="circumflex">
          -72 874 9 callgsubr
        </CharString>
        <CharString name="circumflexacutecmb">
          312 1488 10 callsubr
        </CharString>
        <CharString name="circumflexacutecmb.short">
          29 callsubr
          101 32 -10 callsubr
          endchar
        </CharString>
        <CharString name="circumflexbelowcmb">
          -40 -165 -93 callsubr
        </CharString>
        <CharString name="circumflexcmb">
          329 9 callgsubr
        </CharString>
        <CharString name="circumflexcmb.short">
          390 1858 -93 callsubr
        </CharString>
        <CharString name="circumflexgravecmb">
          573 94 callgsubr
          -131 -42 -79 callsubr
          endchar
        </CharString>
        <CharString name="circumflexgravecmb.short">
          29 callsubr
          287 32 -10 callgsubr
          endchar
        </CharString>
        <CharString name="circumflexhookabovecmb">
          322 1707 -48 callsubr
        </CharString>
        <CharString name="circumflexhookabovecmb.short">
          29 callsubr
          36 155 rmoveto
          6 25 25 3 27 hhcurveto
          54 35 -25 -37 -44 -45 -32 -59 -12 hvcurveto
          62 -70 rlineto
          103 28 60 63 81 vvcurveto
          84 -70 55 -112 -28 -38 -5 -7 -16 vhcurveto
          endchar
        </CharString>
        <CharString name="circumflextildecmb">
          312 1488 -28 callsubr
        </CharString>
        <CharString name="circumflextildecmb.short">
          467 1833 -44 callsubr
        </CharString>
        <CharString name="colon">
          -644 223 -10 -29 callsubr
          158 742 -29 callsubr
          endchar
        </CharString>
        <CharString name="colon.uc">
          -644 275 237 -29 callsubr
          158 742 -29 callsubr
          endchar
        </CharString>
        <CharString name="coloncurrency">
          73 962 1306 rmoveto
          1 14 14 0 14 hhcurveto
          44 58 -3 -6 53 hvcurveto
          -607 -1024 -51 35 -43 41 -34 48 rlinecurve
          -69 145 rmoveto
          -11 42 -6 45 47 vvcurveto
          289 169 237 286 77 vhcurveto
          704 327 rmoveto
          -154 hlineto
          -91 -154 -60 9 -75 7 -56 3 rlinecurve
          80 135 rlineto
          -154 hlineto
          -82 -138 rlineto
          -479 -44 -281 -337 -427 vvcurveto
          -122 31 -110 56 -94 vhcurveto
          -308 -519 rlineto
          154 hlineto
          241 407 41 -41 46 -37 51 -31 rlinecurve
          -177 -298 rlineto
          154 hlineto
          142 240 rlineto
          -43 109 125 -23 134 hhcurveto
          48 72 5 6 26 hvcurveto
          35 164 rlineto
          -6 -30 -56 -5 -50 hhcurveto
          -118 -109 20 38 -93 hvcurveto
          endchar
        </CharString>
        <CharString name="comma">
          -644 137 -287 105 callsubr
          endchar
        </CharString>
        <CharString name="commaaccent">
          -72 385 -476 -40 callsubr
        </CharString>
        <CharString name="commabelowcmb">
          -209 -476 -40 callsubr
        </CharString>
        <CharString name="copyright">
          490 891 -168 rmoveto
          460 344 358 479 446 -318 305 -466 -459 -345 -359 -479 -444 319 -306 465 hvcurveto
          140 vmoveto
          -385 -258 246 365 399 284 298 379 387 256 -244 -368 -398 -284 -298 -379 hvcurveto
          380 820 rmoveto
          159 -12 -125 103 -181 hhcurveto
          -244 -178 -209 -285 -204 139 -142 200 174 131 95 150 34 hvcurveto
          -134 hlineto
          -84 -32 -66 -43 -96 hhcurveto
          -129 -86 98 147 207 118 154 159 104 84 -63 -83 8 hvcurveto
          endchar
        </CharString>
        <CharString name="cruzeiro">
          73 1084 1 rmoveto
          35 164 rlineto
          -6 -32 -57 -5 -47 hhcurveto
          -50 -48 4 6 -45 hvcurveto
          64 307 rlineto
          193 40 98 94 161 hhcurveto
          32 48 -7 -6 12 hvcurveto
          40 170 rlineto
          3 -10 -42 3 -24 hhcurveto
          -135 -107 -67 -106 -57 hvcurveto
          -4 hlineto
          33 155 rlineto
          -163 hlineto
          -148 -697 rlineto
          -214 82 -132 167 220 vvcurveto
          365 280 260 394 108 147 -21 -23 52 vhcurveto
          37 162 rlineto
          27 -71 -151 22 -113 hhcurveto
          -518 -358 -331 -477 -388 340 -281 459 51 70 5 6 25 hvcurveto
          endchar
        </CharString>
        <CharString name="currency">
          73 437 656 rmoveto
          145 119 119 145 145 119 -119 -145 -145 -119 -119 -145 -145 -119 119 145 vhcurveto
          840 385 rmoveto
          -87 110 -237 -196 rlineto
          57 -68 -88 35 -96 hhcurveto
          -63 -60 -15 -27 -52 hvcurveto
          -111 141 -123 -98 111 -140 rlineto
          -58 -68 -35 -88 -96 vvcurveto
          -69 18 -64 31 -57 vhcurveto
          -236 -196 87 -110 239 198 rlineto
          -58 68 88 -35 96 hhcurveto
          63 59 15 26 52 hvcurveto
          110 -139 123 98 -109 138 rlineto
          58 69 35 88 96 vvcurveto
          69 -18 65 -32 57 vhcurveto
          endchar
        </CharString>
        <CharString name="cyrilliccentraldescender">
          -486 368 67 callgsubr
          endchar
        </CharString>
        <CharString name="cyrilliccentraldescendercap">
          -486 366 67 callsubr
          endchar
        </CharString>
        <CharString name="cyrillicdescender">
          -160 387 -31 callsubr
          endchar
        </CharString>
        <CharString name="cyrillicdescender.short">
          -161 367 38 callsubr
          endchar
        </CharString>
        <CharString name="cyrillicdescendercap">
          -160 398 -24 callgsubr
          endchar
        </CharString>
        <CharString name="cyrillicdescendercap.short">
          -160 346 42 callsubr
          endchar
        </CharString>
        <CharString name="cyrillichook">
          -160 184 -370 -6 callgsubr
          endchar
        </CharString>
        <CharString name="cyrillichookcap">
          -160 179 -375 -7 callsubr
          endchar
        </CharString>
        <CharString name="cyrillictail">
          -160 295 13 callgsubr
          endchar
        </CharString>
        <CharString name="cyrillictailcap">
          -160 290 12 callsubr
          endchar
        </CharString>
        <CharString name="d">
          -15 502 -18 5 callgsubr
        </CharString>
        <CharString name="dagger">
          -176 751 1126 rmoveto
          255 hlineto
          30 143 rlineto
          -255 hlineto
          57 270 rlineto
          -154 hlineto
          -57 -270 rlineto
          -255 103 callgsubr
          255 hlineto
          -119 -558 rlineto
          154 hlineto
          endchar
        </CharString>
        <CharString name="daggerdbl">
          -176 934 788 rmoveto
          30 143 rlineto
          -257 hlineto
          25 118 25 117 rlineto
          257 hlineto
          31 143 rlineto
          -255 hlineto
          48 230 rlineto
          -154 hlineto
          -48 -230 rlineto
          -255 hlineto
          -31 -143 rlineto
          257 hlineto
          -25 -117 -25 -118 rlineto
          -257 103 callgsubr
          255 hlineto
          -47 -220 rlineto
          154 hlineto
          47 220 rlineto
          endchar
        </CharString>
        <CharString name="dblgrave">
          -72 770 1208 -43 callgsubr
        </CharString>
        <CharString name="dblgravecmb">
          107 1208 -43 callgsubr
        </CharString>
        <CharString name="dblgravecmb.short">
          56 1560 -57 callsubr
          519 -289 -57 callsubr
          endchar
        </CharString>
        <CharString name="dcaron">
          190 1432 38 callgsubr
          -1100 -1461 5 callgsubr
        </CharString>
        <CharString name="dcircumflexbelow">
          -15 502 -18 -95 callsubr
          48 -300 -93 callsubr
        </CharString>
        <CharString name="dcommaaccent">
          -15 502 -18 -95 callsubr
          -121 -611 -40 callsubr
        </CharString>
        <CharString name="dcroat">
          -15 542 135 rmoveto
          -159 -94 115 188 274 151 192 198 164 104 -121 -171 -273 -154 -204 -210 hvcurveto
          833 1202 rmoveto
          -116 hlineto
          23 106 rlineto
          -174 hlineto
          -23 -106 rlineto
          -243 hlineto
          -31 -144 rlineto
          243 hlineto
          -79 -367 rlineto
          -5 hlineto
          128 -32 -136 104 -166 hhcurveto
          -294 -227 -268 -360 -270 149 -178 238 136 130 80 104 63 hvcurveto
          4 hlineto
          -35 -166 rlineto
          175 hlineto
          254 1193 rlineto
          116 hlineto
          endchar
        </CharString>
        <CharString name="ddotaccent">
          -15 502 -18 -95 callsubr
          719 1476 -102 callgsubr
        </CharString>
        <CharString name="ddotbelow">
          -15 502 -18 -95 callsubr
          -41 -568 -102 callgsubr
        </CharString>
        <CharString name="decyrillic">
          -8 779 144 rmoveto
          -507 hlineto
          3 16 59 59 48 101 39 138 rlinecurve
          -3 -9 126 438 2 9 rrcurveto
          393 hlineto
          205 144 rmoveto
          -721 hlineto
          2 9 -169 -597 3 9 -42 -148 -78 -124 -70 -45 rrcurveto
          -87 hlineto
          -90 -419 rlineto
          161 hlineto
          59 275 rlineto
          815 hlineto
          -58 -275 rlineto
          161 hlineto
          90 419 rlineto
          -165 hlineto
          endchar
        </CharString>
        <CharString name="decyrillic.1">
          -47 568 135 rmoveto
          -167 -111 135 194 258 140 181 204 168 105 -123 -184 -263 -141 -198 -198 hvcurveto
          66 921 rmoveto
          -308 -212 -248 -354 -278 180 -194 270 333 218 314 532 407 -189 232 -332 hvcurveto
          -130 -90 -40 -1 hhcurveto
          -31 -155 rlineto
          27 50 97 21 74 hhcurveto
          236 150 -166 -279 14 hvcurveto
          -9 hlineto
          111 -60 -122 70 -138 hhcurveto
          endchar
        </CharString>
        <CharString name="degree">
          -432 556 888 rmoveto
          158 127 127 158 158 -127 127 -158 -159 -125 -127 -158 -158 125 -127 159 hvcurveto
          129 vmoveto
          -83 -74 71 85 87 74 70 83 88 70 -70 -87 -85 -70 -71 -88 hvcurveto
          endchar
        </CharString>
        <CharString name="deltagreek">
          -103 520 -18 rmoveto
          368 178 282 296 168 -80 147 -252 141 hvcurveto
          -144 81 -28 33 53 vvcurveto
          79 66 39 113 125 117 -31 -61 96 vhcurveto
          38 151 rlineto
          56 -64 -135 36 -144 hhcurveto
          -239 -146 -103 -169 -89 46 -82 113 -62 hvcurveto
          -1 -2 rlineto
          0 vlineto
          -297 -37 -165 -216 -278 vvcurveto
          -259 180 -173 255 vhcurveto
          18 150 rmoveto
          -157 -120 120 175 256 164 153 196 163 106 -110 -174 -246 -150 -174 -202 hvcurveto
          endchar
        </CharString>
        <CharString name="dieresis">
          -72 586 1215 -106 callgsubr
          endchar
        </CharString>
        <CharString name="dieresisacutecmb">
          174 1530 -15 callgsubr
          -413 -621 -106 callgsubr
          endchar
        </CharString>
        <CharString name="dieresisacutecmb.short">
          234 1830 -10 callsubr
          -331 -492 -47 callgsubr
        </CharString>
        <CharString name="dieresisbelowcmb">
          -312 -419 -106 callgsubr
          endchar
        </CharString>
        <CharString name="dieresiscaroncmb">
          33 52 callgsubr
          -254 301 18 callgsubr
          endchar
        </CharString>
        <CharString name="dieresiscaroncmb.short">
          248 1816 22 callsubr
        </CharString>
        <CharString name="dieresiscmb">
          31 1215 -106 callgsubr
          endchar
        </CharString>
        <CharString name="dieresiscmb.short">
          117 1618 -106 callgsubr
          endchar
        </CharString>
        <CharString name="dieresisgravecmb">
          343 94 callgsubr
          -180 -325 -106 callgsubr
          endchar
        </CharString>
        <CharString name="dieresisgravecmb.short">
          416 1830 -10 callgsubr
          -165 -276 -47 callgsubr
        </CharString>
        <CharString name="dieresismacroncmb">
          33 33 callgsubr
        </CharString>
        <CharString name="dieresismacroncmb.short">
          117 1766 -39 callgsubr
        </CharString>
        <CharString name="dieresistonosgreek">
          189 880 1208 -46 callgsubr
        </CharString>
        <CharString name="divide">
          73 1174 496 33 callsubr
        </CharString>
        <CharString name="divide.uc">
          73 1206 648 33 callsubr
        </CharString>
        <CharString name="djecyrillic">
          -50 418 879 rmoveto
          73 343 rlineto
          216 hlineto
          26 123 rlineto
          -216 hlineto
          23 108 rlineto
          -175 hlineto
          -23 -108 rlineto
          -145 hlineto
          -25 -123 rlineto
          144 hlineto
          -259 -1222 rlineto
          175 hlineto
          135 634 rlineto
          161 34 129 109 155 hhcurveto
          137 88 -81 -126 -31 -5 -35 -8 -36 hvcurveto
          -143 -648 -20 -92 -55 -52 -77 -1 rlinecurve
          -55 hlineto
          -37 -162 rlineto
          33 46 0 26 hhcurveto
          177 1 88 82 45 205 153 697 rcurveline
          9 40 5 41 40 vvcurveto
          177 -144 135 -189 -136 -130 -72 -107 -71 vhcurveto
          endchar
        </CharString>
        <CharString name="dlinebelow">
          -15 502 -18 -95 callsubr
          293 -386 -76 callgsubr
        </CharString>
        <CharString name="dollar">
          73 763 626 rmoveto
          133 -61 72 -66 -116 vvcurveto
          -145 -114 -107 -196 -2 vhcurveto
          20 727 rmoveto
          -123 55 -69 59 107 vvcurveto
          132 119 104 170 vhcurveto
          26 -510 rmoveto
          104 491 102 -34 65 -78 18 -114 rlinecurve
          181 hlineto
          -3 181 -132 158 -196 51 30 142 rcurveline
          -134 hlineto
          -26 -124 rlineto
          -4 -3 0 -3 hhcurveto
          -306 -198 -175 -235 -167 107 -123 186 -77 hvcurveto
          51 -21 -113 -533 -125 34 -84 86 -18 125 rlinecurve
          -182 hlineto
          11 -199 158 -157 206 -50 -27 -126 rcurveline
          134 hlineto
          23 108 rlineto
          5 5 0 5 hhcurveto
          299 222 172 266 185 -127 115 -214 92 hvcurveto
          endchar
        </CharString>
        <CharString name="dotaccent">
          -73 770 1208 -102 callgsubr
        </CharString>
        <CharString name="dotaccentcmb">
          219 1208 -102 callgsubr
        </CharString>
        <CharString name="dotaccentcmb.short">
          305 1611 -102 callgsubr
        </CharString>
        <CharString name="dotbelowcmb">
          -129 -433 -102 callgsubr
        </CharString>
        <CharString name="dotlessi">
          -742 64 100 callsubr
          -176 hlineto
          endchar
        </CharString>
        <CharString name="dotlessj">
          -750 458 1040 rmoveto
          -33 callsubr
          -234 -1092 rlineto
          -114 -24 -44 -40 -96 hhcurveto
          -18 -11 1 2 -21 hvcurveto
          -34 -151 rlineto
          -3 28 36 -1 15 hhcurveto
          188 1 110 85 42 197 rrcurveto
          endchar
        </CharString>
        <CharString name="dotmacroncmb">
          219 1195 5 callsubr
        </CharString>
        <CharString name="dotmacroncmb.short">
          300 1577 27 callsubr
        </CharString>
        <CharString name="doublebreve">
          -488 336 -32 callsubr
          endchar
        </CharString>
        <CharString name="doublebreve.short">
          -488 419 -31 callgsubr
          endchar
        </CharString>
        <CharString name="dzecyrillic">
          -208 191 -99 callgsubr
          endchar
        </CharString>
        <CharString name="dzhecyrillic">
          -87 902 hmoveto
          221 1040 45 callgsubr
          342 hlineto
          -59 -275 rlineto
          161 hlineto
          59 275 rlineto
          endchar
        </CharString>
        <CharString name="e">
          -104 314 618 -107 callsubr
          endchar
        </CharString>
        <CharString name="eacute">
          -104 314 618 -107 callsubr
          210 1228 -77 callsubr
          endchar
        </CharString>
        <CharString name="ebreve">
          -104 314 618 -107 callsubr
          -123 1528 -67 callsubr
        </CharString>
        <CharString name="ecaron">
          -104 314 618 -107 callsubr
          215 1228 -80 callsubr
        </CharString>
        <CharString name="ecedilla">
          -104 314 618 rmoveto
          162 42 109 126 162 hhcurveto
          175 70 -128 -132 -9 0 -10 -1 -9 hvcurveto
          169 -139 rmoveto
          7 45 2 52 43 vvcurveto
          271 -161 168 -259 -302 -213 -278 -342 -239 119 -182 233 -32 vhcurveto
          -78 -144 -16 -72 rlineto
          59 hlineto
          108 47 -20 -45 -44 -46 -25 -79 -48 -48 9 16 -43 hvcurveto
          -24 -114 rlineto
          -17 45 73 -12 59 hhcurveto
          148 98 79 119 95 -70 54 -119 -4 hvcurveto
          71 124 195 24 154 138 49 174 rlinecurve
          -171 hlineto
          -113 -47 -99 -74 -140 hhcurveto
          -154 -99 118 192 12 0 12 1 12 hvcurveto
          endchar
        </CharString>
        <CharString name="ecedillabreve">
          -104 935 1508 rmoveto
          -126 -27 -98 -76 -114 hhcurveto
          -97 -62 57 93 19 4 19 4 14 hvcurveto
          -126 hlineto
          -6 -21 -4 -25 -28 vvcurveto
          -141 118 -95 150 204 139 116 194 41 vhcurveto
          -747 -890 rmoveto
          162 42 109 126 162 hhcurveto
          175 70 -128 -132 -9 0 -10 -1 -9 hvcurveto
          -483 -777 rmoveto
          -16 -72 rlineto
          59 hlineto
          108 47 -20 -45 -44 -46 -25 -79 -48 -48 9 16 -43 hvcurveto
          -24 -114 rlineto
          -17 45 73 -12 59 hhcurveto
          148 98 79 119 95 -70 54 -119 -4 hvcurveto
          71 124 195 24 154 138 49 174 rlinecurve
          -171 hlineto
          -113 -47 -99 -74 -140 hhcurveto
          -154 -99 118 192 12 0 12 1 12 hvcurveto
          748 hlineto
          7 45 2 52 43 vvcurveto
          271 -161 168 -259 -302 -213 -278 -342 -239 119 -182 233 -32 vhcurveto
          endchar
        </CharString>
        <CharString name="ecircumflex">
          -104 314 618 -107 callsubr
          270 1528 -60 callgsubr
        </CharString>
        <CharString name="ecircumflexacute">
          -104 314 618 -107 callsubr
          253 1508 10 callsubr
        </CharString>
        <CharString name="ecircumflexbelow">
          -104 314 618 -107 callsubr
          18 -145 -93 callsubr
        </CharString>
        <CharString name="ecircumflexdotbelow">
          -104 314 618 -107 callsubr
          270 1528 -75 callgsubr
          -549 -1641 -102 callgsubr
        </CharString>
        <CharString name="ecircumflexgrave">
          -104 314 618 -107 callsubr
          514 1550 -24 callsubr
          -131 -42 -79 callsubr
          endchar
        </CharString>
        <CharString name="ecircumflexhookabove">
          -104 314 618 -107 callsubr
          263 1727 -48 callsubr
        </CharString>
        <CharString name="ecircumflextilde">
          -104 314 618 -107 callsubr
          253 1508 -28 callsubr
        </CharString>
        <CharString name="ecyrillic">
          4 callsubr
          endchar
        </CharString>
        <CharString name="edblgrave">
          -104 314 618 -107 callsubr
          48 1228 -43 callgsubr
        </CharString>
        <CharString name="edieresis">
          -104 314 618 -107 callsubr
          -28 1235 -106 callgsubr
          endchar
        </CharString>
        <CharString name="edotaccent">
          -104 314 618 -107 callsubr
          160 1228 -102 callgsubr
        </CharString>
        <CharString name="edotbelow">
          -104 314 618 -107 callsubr
          -71 -413 -102 callgsubr
        </CharString>
        <CharString name="efcyrillic">
          266 668 -346 rmoveto
          70 328 rlineto
          404 3 273 256 375 vvcurveto
          253 -181 178 -267 12 vhcurveto
          71 332 -3 callsubr
          -70 -328 rlineto
          -404 -3 -273 -256 -375 vvcurveto
          -253 181 -178 267 -12 vhcurveto
          -71 -332 rlineto
          739 940 rmoveto
          -264 -188 -187 -277 -10 vhcurveto
          165 775 rlineto
          187 -5 113 -118 -191 vvcurveto
          -936 -143 rmoveto
          264 188 187 277 10 vhcurveto
          -165 -775 rlineto
          -187 5 -113 118 191 vvcurveto
          endchar
        </CharString>
        <CharString name="egrave">
          -104 314 618 -107 callsubr
          218 1228 -35 callgsubr
        </CharString>
        <CharString name="ehookabove">
          -104 314 618 -107 callsubr
          22 1448 -62 callsubr
        </CharString>
        <CharString name="eight">
          77 1176 -26 callgsubr
        </CharString>
        <CharString name="eight.dnum">
          -492 601 195 -57 callgsubr
        </CharString>
        <CharString name="eight.numr">
          -492 762 953 -57 callgsubr
        </CharString>
        <CharString name="eight.subs">
          -492 529 -145 -57 callgsubr
        </CharString>
        <CharString name="eight.sups">
          -492 840 1320 -57 callgsubr
        </CharString>
        <CharString name="eight.tnum">
          73 1174 -26 callgsubr
        </CharString>
        <CharString name="einvertedbreve">
          -104 314 618 -107 callsubr
          455 1218 -59 callgsubr
        </CharString>
        <CharString name="elcyrillic">
          -107 415 458 -51 callsubr
        </CharString>
        <CharString name="ellipsis">
          330 223 -10 -29 callsubr
          487 hmoveto
          -35 callsubr
          487 hmoveto
          -35 callsubr
          endchar
        </CharString>
        <CharString name="emacron">
          -104 314 618 -107 callsubr
          465 1418 -74 callsubr
        </CharString>
        <CharString name="emacronacute">
          -104 314 618 -107 callsubr
          115 1550 -15 callgsubr
          65 -452 -74 callsubr
        </CharString>
        <CharString name="emacrongrave">
          -104 314 618 -107 callsubr
          284 1550 -24 callsubr
          298 -156 -74 callsubr
        </CharString>
        <CharString name="emcyrillic">
          233 233 30 callsubr
        </CharString>
        <CharString name="emdash">
          882 43 486 99 callsubr
        </CharString>
        <CharString name="emdash.uc">
          882 77 646 99 callsubr
        </CharString>
        <CharString name="emquad">
          796 endchar
        </CharString>
        <CharString name="emspace">
          844 endchar
        </CharString>
        <CharString name="encyrillic">
          -78 57 hmoveto
          -34 callgsubr
        </CharString>
        <CharString name="endash">
          -142 43 486 108 callgsubr
        </CharString>
        <CharString name="endash.uc">
          -142 77 646 108 callgsubr
        </CharString>
        <CharString name="enquad">
          -228 endchar
        </CharString>
        <CharString name="enspace">
          2 endchar
        </CharString>
        <CharString name="eogonek">
          -104 563 -412 rmoveto
          47 47 9 12 17 hvcurveto
          74 callgsubr
          -18 -25 -4 -30 102 callsubr
          75 107 104 187 108 hvcurveto
          83 48 62 87 31 110 rrcurveto
          -171 hlineto
          -113 -47 -99 -74 -140 hhcurveto
          -154 -99 118 192 12 0 12 1 12 hvcurveto
          748 hlineto
          7 45 2 52 43 vvcurveto
          271 -161 168 -259 -302 -213 -278 -342 -264 145 -194 283 vhcurveto
          6 -3 hlineto
          -115 -69 -58 -78 -92 vvcurveto
          -90 75 -60 113 vhcurveto
          -249 1030 rmoveto
          162 42 109 126 162 hhcurveto
          175 70 -128 -132 -9 0 -10 -1 -9 hvcurveto
          endchar
        </CharString>
        <CharString name="epsilongreek">
          -1 callsubr
          endchar
        </CharString>
        <CharString name="epsilontonosgreek">
          -1 callsubr
          121 1200 -28 callgsubr
          endchar
        </CharString>
        <CharString name="equal">
          73 1107 301 66 callsubr
          1048 383 66 callsubr
          endchar
        </CharString>
        <CharString name="equal.dnum">
          -494 566 161 14 callsubr
        </CharString>
        <CharString name="equal.numr">
          -494 727 919 14 callsubr
        </CharString>
        <CharString name="equal.subs">
          -494 494 -179 14 callsubr
        </CharString>
        <CharString name="equal.sups">
          -494 805 1286 14 callsubr
        </CharString>
        <CharString name="equal.uc">
          73 1139 453 66 callsubr
          1048 383 66 callsubr
          endchar
        </CharString>
        <CharString name="ercyrillic">
          -19 607 -69 callsubr
          endchar
        </CharString>
        <CharString name="ereversedcyrillic">
          -79 callgsubr
          endchar
        </CharString>
        <CharString name="escyrillic">
          -125 652 1058 -91 callgsubr
          endchar
        </CharString>
        <CharString name="etagreek">
          -2 callgsubr
          endchar
        </CharString>
        <CharString name="etatonosgreek">
          -2 callgsubr
          -291 596 -28 callgsubr
          endchar
        </CharString>
        <CharString name="eth">
          -53 552 137 rmoveto
          -168 -92 135 174 254 150 166 195 164 116 -117 -166 -232 -179 -214 -186 hvcurveto
          613 1158 rmoveto
          -8 128 -221 -66 -17 26 -23 29 -35 43 rlinecurve
          -190 hlineto
          57 -66 34 -43 24 -34 -281 -84 rcurveline
          6 -128 341 101 64 -125 37 -126 5 -115 rlinecurve
          -3 -1 rlineto
          102 -47 -123 89 -160 hhcurveto
          -287 -228 -249 -354 -236 156 -204 272 255 199 181 294 79 hvcurveto
          25 91 13 105 114 vvcurveto
          164 -33 142 -81 172 vhcurveto
          endchar
        </CharString>
        <CharString name="etilde">
          -104 314 618 -107 callsubr
          278 1236 -102 callsubr
          endchar
        </CharString>
        <CharString name="etildebelow">
          -104 314 618 -107 callsubr
          52 -422 -102 callsubr
          endchar
        </CharString>
</ttFont>
